{
	"patcher" : 	{
		"fileversion" : 1,
		"appversion" : 		{
			"major" : 8,
			"minor" : 5,
			"revision" : 4,
			"architecture" : "x64",
			"modernui" : 1
		}
,
		"classnamespace" : "box",
		"rect" : [ 664.0, 176.0, 719.0, 840.0 ],
		"bglocked" : 0,
		"openinpresentation" : 1,
		"default_fontsize" : 12.0,
		"default_fontface" : 0,
		"default_fontname" : "Arial",
		"gridonopen" : 1,
		"gridsize" : [ 15.0, 15.0 ],
		"gridsnaponopen" : 1,
		"objectsnaponopen" : 1,
		"statusbarvisible" : 2,
		"toolbarvisible" : 1,
		"lefttoolbarpinned" : 0,
		"toptoolbarpinned" : 0,
		"righttoolbarpinned" : 0,
		"bottomtoolbarpinned" : 0,
		"toolbars_unpinned_last_save" : 0,
		"tallnewobj" : 0,
		"boxanimatetime" : 200,
		"enablehscroll" : 1,
		"enablevscroll" : 1,
		"devicewidth" : 0.0,
		"description" : "",
		"digest" : "",
		"tags" : "",
		"style" : "",
		"subpatcher_template" : "",
		"assistshowspatchername" : 0,
		"boxes" : [ 			{
				"box" : 				{
					"fontname" : "Arial",
					"fontsize" : 12.0,
					"id" : "obj-60",
					"maxclass" : "newobj",
					"numinlets" : 1,
					"numoutlets" : 5,
					"outlettype" : [ "", "", "", "", "" ],
					"patching_rect" : [ 67.642534255981445, 1008.38562399148941, 178.0, 22.0 ],
					"text" : "regexp ([\\\\d]) @substitute \"%1 \""
				}

			}
, 			{
				"box" : 				{
					"id" : "obj-282",
					"maxclass" : "newobj",
					"numinlets" : 1,
					"numoutlets" : 5,
					"outlettype" : [ "int", "int", "int", "int", "int" ],
					"patching_rect" : [ 67.642534255981445, 1040.38562399148941, 97.0, 22.0 ],
					"text" : "unpack 1 1 1 1 1"
				}

			}
, 			{
				"box" : 				{
					"id" : "obj-281",
					"maxclass" : "newobj",
					"numinlets" : 0,
					"numoutlets" : 1,
					"outlettype" : [ "" ],
					"patching_rect" : [ 67.642534255981445, 976.0, 189.0, 22.0 ],
					"text" : "r ea_master_arm1_rotoscil_active"
				}

			}
, 			{
				"box" : 				{
					"id" : "obj-69",
					"maxclass" : "newobj",
					"numinlets" : 0,
					"numoutlets" : 1,
					"outlettype" : [ "" ],
					"patching_rect" : [ 78.035068511962891, 1409.0, 201.0, 22.0 ],
					"text" : "r ea_master_arm1_targetpos_active"
				}

			}
, 			{
				"box" : 				{
					"id" : "obj-232",
					"maxclass" : "newobj",
					"numinlets" : 1,
					"numoutlets" : 0,
					"patching_rect" : [ 389.642534255981445, 1475.0, 220.0, 22.0 ],
					"text" : "s ea_behavior_targetpos_all_active_set"
				}

			}
, 			{
				"box" : 				{
					"id" : "obj-233",
					"maxclass" : "newobj",
					"numinlets" : 2,
					"numoutlets" : 1,
					"outlettype" : [ "" ],
					"patching_rect" : [ 292.892534255981445, 1441.0, 58.0, 22.0 ],
					"text" : "pak 1 0.1"
				}

			}
, 			{
				"box" : 				{
					"id" : "obj-234",
					"maxclass" : "toggle",
					"numinlets" : 1,
					"numoutlets" : 1,
					"outlettype" : [ "int" ],
					"parameter_enable" : 0,
					"patching_rect" : [ 292.892534255981445, 1410.0, 24.0, 24.0 ],
					"presentation" : 1,
					"presentation_rect" : [ 151.75, 440.811006903648376, 24.0, 24.0 ],
					"varname" : "ea_arm1_fluidity_active[1]"
				}

			}
, 			{
				"box" : 				{
					"id" : "obj-272",
					"maxclass" : "comment",
					"numinlets" : 1,
					"numoutlets" : 0,
					"patching_rect" : [ 37.392534255981445, 1411.0, 29.0, 20.0 ],
					"presentation" : 1,
					"presentation_rect" : [ 151.75, 418.977659344673157, 29.0, 20.0 ],
					"text" : "1"
				}

			}
, 			{
				"box" : 				{
					"id" : "obj-273",
					"maxclass" : "newobj",
					"numinlets" : 1,
					"numoutlets" : 3,
					"outlettype" : [ "int", "float", "" ],
					"patching_rect" : [ 389.392534255981445, 1441.0, 511.75, 22.0 ],
					"text" : "unpack 1 0.1 s"
				}

			}
, 			{
				"box" : 				{
					"id" : "obj-274",
					"maxclass" : "message",
					"numinlets" : 2,
					"numoutlets" : 1,
					"outlettype" : [ "" ],
					"patching_rect" : [ 389.392534255981445, 1411.0, 88.0, 22.0 ],
					"text" : "$1 $2 onshape"
				}

			}
, 			{
				"box" : 				{
					"id" : "obj-275",
					"maxclass" : "newobj",
					"numinlets" : 1,
					"numoutlets" : 0,
					"patching_rect" : [ 882.142534255981445, 1475.0, 215.0, 22.0 ],
					"text" : "s ea_behavior_targetpos_all_body_set"
				}

			}
, 			{
				"box" : 				{
					"id" : "obj-276",
					"maxclass" : "newobj",
					"numinlets" : 1,
					"numoutlets" : 0,
					"patching_rect" : [ 635.767534255981445, 1475.0, 222.0, 22.0 ],
					"text" : "s ea_behavior_targetpos_all_preset_set"
				}

			}
, 			{
				"box" : 				{
					"format" : 6,
					"id" : "obj-277",
					"maxclass" : "flonum",
					"numinlets" : 1,
					"numoutlets" : 2,
					"outlettype" : [ "", "bang" ],
					"parameter_enable" : 0,
					"patching_rect" : [ 321.392534255981445, 1411.0, 50.0, 22.0 ],
					"presentation" : 1,
					"presentation_rect" : [ 178.25, 441.811006903648376, 50.0, 22.0 ],
					"varname" : "ea_arm1_fluidity_preset[1]"
				}

			}
, 			{
				"box" : 				{
					"id" : "obj-279",
					"maxclass" : "comment",
					"numinlets" : 1,
					"numoutlets" : 0,
					"patching_rect" : [ 36.642534255981445, 1375.0, 150.0, 20.0 ],
					"presentation" : 1,
					"presentation_rect" : [ 17.0, 418.977659344673157, 99.598127961158752, 20.0 ],
					"text" : "TargetPos"
				}

			}
, 			{
				"box" : 				{
					"id" : "obj-310",
					"maxclass" : "newobj",
					"numinlets" : 0,
					"numoutlets" : 1,
					"outlettype" : [ "" ],
					"patching_rect" : [ 258.642534255981445, 1291.0, 196.0, 22.0 ],
					"text" : "r ea_master_arm1_rotoscil3_active"
				}

			}
, 			{
				"box" : 				{
					"id" : "obj-314",
					"maxclass" : "newobj",
					"numinlets" : 1,
					"numoutlets" : 0,
					"patching_rect" : [ 660.25, 1357.0, 196.0, 22.0 ],
					"text" : "s ea_behavior_rotoscil3_active_set"
				}

			}
, 			{
				"box" : 				{
					"id" : "obj-316",
					"maxclass" : "newobj",
					"numinlets" : 2,
					"numoutlets" : 1,
					"outlettype" : [ "" ],
					"patching_rect" : [ 544.0, 1322.0, 58.0, 22.0 ],
					"text" : "pak 1 0.1"
				}

			}
, 			{
				"box" : 				{
					"id" : "obj-1034",
					"maxclass" : "toggle",
					"numinlets" : 1,
					"numoutlets" : 1,
					"outlettype" : [ "int" ],
					"parameter_enable" : 0,
					"patching_rect" : [ 544.0, 1291.0, 24.0, 24.0 ],
					"presentation" : 1,
					"presentation_rect" : [ 153.859826803207397, 558.803732872009277, 24.0, 24.0 ],
					"varname" : "ea_arm1_rotoscil3_active"
				}

			}
, 			{
				"box" : 				{
					"id" : "obj-1035",
					"maxclass" : "newobj",
					"numinlets" : 1,
					"numoutlets" : 3,
					"outlettype" : [ "int", "float", "" ],
					"patching_rect" : [ 660.0, 1323.0, 451.75, 22.0 ],
					"text" : "unpack 1 0.1 s"
				}

			}
, 			{
				"box" : 				{
					"id" : "obj-1036",
					"maxclass" : "message",
					"numinlets" : 2,
					"numoutlets" : 1,
					"outlettype" : [ "" ],
					"patching_rect" : [ 660.0, 1293.0, 88.0, 22.0 ],
					"text" : "$1 $2 onshape"
				}

			}
, 			{
				"box" : 				{
					"id" : "obj-1037",
					"maxclass" : "newobj",
					"numinlets" : 1,
					"numoutlets" : 0,
					"patching_rect" : [ 1092.75, 1357.0, 184.0, 22.0 ],
					"text" : "s ea_behavior_rotoscil_body_set"
				}

			}
, 			{
				"box" : 				{
					"id" : "obj-1038",
					"maxclass" : "newobj",
					"numinlets" : 1,
					"numoutlets" : 0,
					"patching_rect" : [ 876.375, 1357.0, 191.0, 22.0 ],
					"text" : "s ea_behavior_rotoscil_preset_set"
				}

			}
, 			{
				"box" : 				{
					"id" : "obj-26",
					"maxclass" : "newobj",
					"numinlets" : 0,
					"numoutlets" : 1,
					"outlettype" : [ "" ],
					"patching_rect" : [ 258.642534255981445, 1186.0, 196.0, 22.0 ],
					"text" : "r ea_master_arm1_rotoscil2_active"
				}

			}
, 			{
				"box" : 				{
					"id" : "obj-27",
					"maxclass" : "newobj",
					"numinlets" : 1,
					"numoutlets" : 0,
					"patching_rect" : [ 660.25, 1252.0, 196.0, 22.0 ],
					"text" : "s ea_behavior_rotoscil2_active_set"
				}

			}
, 			{
				"box" : 				{
					"id" : "obj-28",
					"maxclass" : "newobj",
					"numinlets" : 2,
					"numoutlets" : 1,
					"outlettype" : [ "" ],
					"patching_rect" : [ 515.0, 1216.0, 58.0, 22.0 ],
					"text" : "pak 1 0.1"
				}

			}
, 			{
				"box" : 				{
					"id" : "obj-29",
					"maxclass" : "toggle",
					"numinlets" : 1,
					"numoutlets" : 1,
					"outlettype" : [ "int" ],
					"parameter_enable" : 0,
					"patching_rect" : [ 515.0, 1185.0, 24.0, 24.0 ],
					"presentation" : 1,
					"presentation_rect" : [ 153.859826803207397, 535.803732872009277, 24.0, 24.0 ],
					"varname" : "ea_arm1_rotoscil2_active"
				}

			}
, 			{
				"box" : 				{
					"id" : "obj-30",
					"maxclass" : "newobj",
					"numinlets" : 1,
					"numoutlets" : 3,
					"outlettype" : [ "int", "float", "" ],
					"patching_rect" : [ 660.0, 1218.0, 451.75, 22.0 ],
					"text" : "unpack 1 0.1 s"
				}

			}
, 			{
				"box" : 				{
					"id" : "obj-137",
					"maxclass" : "message",
					"numinlets" : 2,
					"numoutlets" : 1,
					"outlettype" : [ "" ],
					"patching_rect" : [ 660.0, 1188.0, 88.0, 22.0 ],
					"text" : "$1 $2 onshape"
				}

			}
, 			{
				"box" : 				{
					"id" : "obj-140",
					"maxclass" : "newobj",
					"numinlets" : 1,
					"numoutlets" : 0,
					"patching_rect" : [ 1092.75, 1252.0, 184.0, 22.0 ],
					"text" : "s ea_behavior_rotoscil_body_set"
				}

			}
, 			{
				"box" : 				{
					"id" : "obj-146",
					"maxclass" : "newobj",
					"numinlets" : 1,
					"numoutlets" : 0,
					"patching_rect" : [ 876.375, 1252.0, 191.0, 22.0 ],
					"text" : "s ea_behavior_rotoscil_preset_set"
				}

			}
, 			{
				"box" : 				{
					"id" : "obj-14",
					"maxclass" : "newobj",
					"numinlets" : 0,
					"numoutlets" : 1,
					"outlettype" : [ "" ],
					"patching_rect" : [ 258.642534255981445, 1081.0, 196.0, 22.0 ],
					"text" : "r ea_master_arm1_rotoscil1_active"
				}

			}
, 			{
				"box" : 				{
					"id" : "obj-16",
					"maxclass" : "newobj",
					"numinlets" : 1,
					"numoutlets" : 0,
					"patching_rect" : [ 660.25, 1147.0, 196.0, 22.0 ],
					"text" : "s ea_behavior_rotoscil1_active_set"
				}

			}
, 			{
				"box" : 				{
					"id" : "obj-17",
					"maxclass" : "newobj",
					"numinlets" : 2,
					"numoutlets" : 1,
					"outlettype" : [ "" ],
					"patching_rect" : [ 487.0, 1112.0, 58.0, 22.0 ],
					"text" : "pak 1 0.1"
				}

			}
, 			{
				"box" : 				{
					"id" : "obj-19",
					"maxclass" : "toggle",
					"numinlets" : 1,
					"numoutlets" : 1,
					"outlettype" : [ "int" ],
					"parameter_enable" : 0,
					"patching_rect" : [ 487.0, 1081.0, 24.0, 24.0 ],
					"presentation" : 1,
					"presentation_rect" : [ 153.859826803207397, 511.803732872009277, 24.0, 24.0 ],
					"varname" : "ea_arm1_rotoscil1_active"
				}

			}
, 			{
				"box" : 				{
					"id" : "obj-20",
					"maxclass" : "newobj",
					"numinlets" : 1,
					"numoutlets" : 3,
					"outlettype" : [ "int", "float", "" ],
					"patching_rect" : [ 660.0, 1113.0, 451.75, 22.0 ],
					"text" : "unpack 1 0.1 s"
				}

			}
, 			{
				"box" : 				{
					"id" : "obj-21",
					"maxclass" : "message",
					"numinlets" : 2,
					"numoutlets" : 1,
					"outlettype" : [ "" ],
					"patching_rect" : [ 660.0, 1083.0, 88.0, 22.0 ],
					"text" : "$1 $2 onshape"
				}

			}
, 			{
				"box" : 				{
					"id" : "obj-22",
					"maxclass" : "newobj",
					"numinlets" : 1,
					"numoutlets" : 0,
					"patching_rect" : [ 1092.75, 1147.0, 184.0, 22.0 ],
					"text" : "s ea_behavior_rotoscil_body_set"
				}

			}
, 			{
				"box" : 				{
					"id" : "obj-23",
					"maxclass" : "newobj",
					"numinlets" : 1,
					"numoutlets" : 0,
					"patching_rect" : [ 876.375, 1147.0, 191.0, 22.0 ],
					"text" : "s ea_behavior_rotoscil_preset_set"
				}

			}
, 			{
				"box" : 				{
					"id" : "obj-13",
					"maxclass" : "comment",
					"numinlets" : 1,
					"numoutlets" : 0,
					"patching_rect" : [ 38.25, 946.0, 150.0, 20.0 ],
					"presentation" : 1,
					"presentation_rect" : [ 17.0, 465.970385313034058, 99.598127961158752, 20.0 ],
					"text" : "RotOscil"
				}

			}
, 			{
				"box" : 				{
					"id" : "obj-1",
					"maxclass" : "newobj",
					"numinlets" : 0,
					"numoutlets" : 1,
					"outlettype" : [ "" ],
					"patching_rect" : [ 258.642534255981445, 976.0, 196.0, 22.0 ],
					"text" : "r ea_master_arm1_rotoscil0_active"
				}

			}
, 			{
				"box" : 				{
					"id" : "obj-2",
					"maxclass" : "newobj",
					"numinlets" : 1,
					"numoutlets" : 0,
					"patching_rect" : [ 660.25, 1042.0, 196.0, 22.0 ],
					"text" : "s ea_behavior_rotoscil0_active_set"
				}

			}
, 			{
				"box" : 				{
					"id" : "obj-3",
					"maxclass" : "newobj",
					"numinlets" : 2,
					"numoutlets" : 1,
					"outlettype" : [ "" ],
					"patching_rect" : [ 458.5, 1006.0, 58.0, 22.0 ],
					"text" : "pak 1 0.1"
				}

			}
, 			{
				"box" : 				{
					"id" : "obj-4",
					"maxclass" : "toggle",
					"numinlets" : 1,
					"numoutlets" : 1,
					"outlettype" : [ "int" ],
					"parameter_enable" : 0,
					"patching_rect" : [ 458.5, 975.0, 24.0, 24.0 ],
					"presentation" : 1,
					"presentation_rect" : [ 153.859826803207397, 487.803732872009277, 24.0, 24.0 ],
					"varname" : "ea_arm1_rotoscil0_active"
				}

			}
, 			{
				"box" : 				{
					"id" : "obj-5",
					"maxclass" : "comment",
					"numinlets" : 1,
					"numoutlets" : 0,
					"patching_rect" : [ 36.642534255981445, 976.0, 29.0, 20.0 ],
					"presentation" : 1,
					"presentation_rect" : [ 153.859826803207397, 465.970385313034058, 29.0, 20.0 ],
					"text" : "1"
				}

			}
, 			{
				"box" : 				{
					"id" : "obj-7",
					"maxclass" : "newobj",
					"numinlets" : 1,
					"numoutlets" : 3,
					"outlettype" : [ "int", "float", "" ],
					"patching_rect" : [ 660.0, 1008.0, 451.75, 22.0 ],
					"text" : "unpack 1 0.1 s"
				}

			}
, 			{
				"box" : 				{
					"id" : "obj-8",
					"maxclass" : "message",
					"numinlets" : 2,
					"numoutlets" : 1,
					"outlettype" : [ "" ],
					"patching_rect" : [ 660.0, 978.0, 88.0, 22.0 ],
					"text" : "$1 $2 onshape"
				}

			}
, 			{
				"box" : 				{
					"id" : "obj-10",
					"maxclass" : "newobj",
					"numinlets" : 1,
					"numoutlets" : 0,
					"patching_rect" : [ 1092.75, 1042.0, 184.0, 22.0 ],
					"text" : "s ea_behavior_rotoscil_body_set"
				}

			}
, 			{
				"box" : 				{
					"id" : "obj-11",
					"maxclass" : "newobj",
					"numinlets" : 1,
					"numoutlets" : 0,
					"patching_rect" : [ 876.375, 1042.0, 191.0, 22.0 ],
					"text" : "s ea_behavior_rotoscil_preset_set"
				}

			}
, 			{
				"box" : 				{
					"format" : 6,
					"id" : "obj-12",
					"maxclass" : "flonum",
					"numinlets" : 1,
					"numoutlets" : 2,
					"outlettype" : [ "", "bang" ],
					"parameter_enable" : 0,
					"patching_rect" : [ 577.5, 978.0, 50.0, 22.0 ],
					"presentation" : 1,
					"presentation_rect" : [ 180.359826803207397, 488.803732872009277, 50.0, 22.0 ],
					"varname" : "ea_arm1_rotoscil_preset"
				}

			}
, 			{
				"box" : 				{
					"id" : "obj-879",
					"maxclass" : "newobj",
					"numinlets" : 0,
					"numoutlets" : 1,
					"outlettype" : [ "" ],
					"patching_rect" : [ 81.892534255981445, 866.0, 196.214953899383545, 22.0 ],
					"text" : "r ea_master_arm1_fluidity_active"
				}

			}
, 			{
				"box" : 				{
					"id" : "obj-1024",
					"maxclass" : "newobj",
					"numinlets" : 1,
					"numoutlets" : 0,
					"patching_rect" : [ 393.5, 932.0, 185.0, 22.0 ],
					"text" : "s ea_behavior_fluidity_active_set"
				}

			}
, 			{
				"box" : 				{
					"id" : "obj-1025",
					"maxclass" : "newobj",
					"numinlets" : 2,
					"numoutlets" : 1,
					"outlettype" : [ "" ],
					"patching_rect" : [ 296.75, 898.0, 58.0, 22.0 ],
					"text" : "pak 1 0.1"
				}

			}
, 			{
				"box" : 				{
					"id" : "obj-1026",
					"maxclass" : "toggle",
					"numinlets" : 1,
					"numoutlets" : 1,
					"outlettype" : [ "int" ],
					"parameter_enable" : 0,
					"patching_rect" : [ 296.75, 867.0, 24.0, 24.0 ],
					"presentation" : 1,
					"presentation_rect" : [ 151.75, 391.0, 24.0, 24.0 ],
					"varname" : "ea_arm1_fluidity_active"
				}

			}
, 			{
				"box" : 				{
					"id" : "obj-1027",
					"maxclass" : "comment",
					"numinlets" : 1,
					"numoutlets" : 0,
					"patching_rect" : [ 41.25, 868.0, 29.0, 20.0 ],
					"presentation" : 1,
					"presentation_rect" : [ 151.75, 369.16665244102478, 29.0, 20.0 ],
					"text" : "1"
				}

			}
, 			{
				"box" : 				{
					"id" : "obj-1028",
					"maxclass" : "newobj",
					"numinlets" : 1,
					"numoutlets" : 3,
					"outlettype" : [ "int", "float", "" ],
					"patching_rect" : [ 393.25, 898.0, 451.75, 22.0 ],
					"text" : "unpack 1 0.1 s"
				}

			}
, 			{
				"box" : 				{
					"id" : "obj-1029",
					"maxclass" : "message",
					"numinlets" : 2,
					"numoutlets" : 1,
					"outlettype" : [ "" ],
					"patching_rect" : [ 393.25, 868.0, 88.0, 22.0 ],
					"text" : "$1 $2 onshape"
				}

			}
, 			{
				"box" : 				{
					"id" : "obj-1030",
					"maxclass" : "newobj",
					"numinlets" : 1,
					"numoutlets" : 0,
					"patching_rect" : [ 826.0, 932.0, 180.0, 22.0 ],
					"text" : "s ea_behavior_fluidity_body_set"
				}

			}
, 			{
				"box" : 				{
					"id" : "obj-1031",
					"maxclass" : "newobj",
					"numinlets" : 1,
					"numoutlets" : 0,
					"patching_rect" : [ 609.625, 932.0, 187.0, 22.0 ],
					"text" : "s ea_behavior_fluidity_preset_set"
				}

			}
, 			{
				"box" : 				{
					"format" : 6,
					"id" : "obj-1032",
					"maxclass" : "flonum",
					"numinlets" : 1,
					"numoutlets" : 2,
					"outlettype" : [ "", "bang" ],
					"parameter_enable" : 0,
					"patching_rect" : [ 325.25, 868.0, 50.0, 22.0 ],
					"presentation" : 1,
					"presentation_rect" : [ 178.25, 392.0, 50.0, 22.0 ],
					"varname" : "ea_arm1_fluidity_preset"
				}

			}
, 			{
				"box" : 				{
					"id" : "obj-1033",
					"maxclass" : "comment",
					"numinlets" : 1,
					"numoutlets" : 0,
					"patching_rect" : [ 40.5, 834.0, 150.0, 20.0 ],
					"presentation" : 1,
					"presentation_rect" : [ 17.0, 369.16665244102478, 99.598127961158752, 20.0 ],
					"text" : "Fluidity"
				}

			}
, 			{
				"box" : 				{
					"id" : "obj-709",
					"maxclass" : "newobj",
					"numinlets" : 0,
					"numoutlets" : 1,
					"outlettype" : [ "" ],
					"patching_rect" : [ 78.892534255981445, 751.0, 196.0, 22.0 ],
					"text" : "r ea_master_arm1_staccato_active"
				}

			}
, 			{
				"box" : 				{
					"id" : "obj-854",
					"maxclass" : "newobj",
					"numinlets" : 1,
					"numoutlets" : 0,
					"patching_rect" : [ 390.5, 817.0, 196.0, 22.0 ],
					"text" : "s ea_behavior_staccato_active_set"
				}

			}
, 			{
				"box" : 				{
					"id" : "obj-855",
					"maxclass" : "newobj",
					"numinlets" : 2,
					"numoutlets" : 1,
					"outlettype" : [ "" ],
					"patching_rect" : [ 293.75, 783.0, 58.0, 22.0 ],
					"text" : "pak 1 0.1"
				}

			}
, 			{
				"box" : 				{
					"id" : "obj-856",
					"maxclass" : "toggle",
					"numinlets" : 1,
					"numoutlets" : 1,
					"outlettype" : [ "int" ],
					"parameter_enable" : 0,
					"patching_rect" : [ 293.75, 752.0, 24.0, 24.0 ],
					"presentation" : 1,
					"presentation_rect" : [ 151.75, 341.0, 24.0, 24.0 ],
					"varname" : "ea_arm1_staccato_active"
				}

			}
, 			{
				"box" : 				{
					"id" : "obj-857",
					"maxclass" : "comment",
					"numinlets" : 1,
					"numoutlets" : 0,
					"patching_rect" : [ 38.25, 753.0, 29.0, 20.0 ],
					"presentation" : 1,
					"presentation_rect" : [ 151.75, 319.16665244102478, 29.0, 20.0 ],
					"text" : "1"
				}

			}
, 			{
				"box" : 				{
					"id" : "obj-858",
					"maxclass" : "newobj",
					"numinlets" : 1,
					"numoutlets" : 3,
					"outlettype" : [ "int", "float", "" ],
					"patching_rect" : [ 390.25, 783.0, 451.75, 22.0 ],
					"text" : "unpack 1 0.1 s"
				}

			}
, 			{
				"box" : 				{
					"id" : "obj-859",
					"maxclass" : "message",
					"numinlets" : 2,
					"numoutlets" : 1,
					"outlettype" : [ "" ],
					"patching_rect" : [ 390.25, 753.0, 88.0, 22.0 ],
					"text" : "$1 $2 onshape"
				}

			}
, 			{
				"box" : 				{
					"id" : "obj-860",
					"maxclass" : "newobj",
					"numinlets" : 1,
					"numoutlets" : 0,
					"patching_rect" : [ 823.0, 817.0, 191.0, 22.0 ],
					"text" : "s ea_behavior_staccato_body_set"
				}

			}
, 			{
				"box" : 				{
					"id" : "obj-861",
					"maxclass" : "newobj",
					"numinlets" : 1,
					"numoutlets" : 0,
					"patching_rect" : [ 606.625, 817.0, 198.0, 22.0 ],
					"text" : "s ea_behavior_staccato_preset_set"
				}

			}
, 			{
				"box" : 				{
					"format" : 6,
					"id" : "obj-862",
					"maxclass" : "flonum",
					"numinlets" : 1,
					"numoutlets" : 2,
					"outlettype" : [ "", "bang" ],
					"parameter_enable" : 0,
					"patching_rect" : [ 322.25, 753.0, 50.0, 22.0 ],
					"presentation" : 1,
					"presentation_rect" : [ 178.25, 342.0, 50.0, 22.0 ],
					"varname" : "ea_arm1_staccato_preset"
				}

			}
, 			{
				"box" : 				{
					"id" : "obj-863",
					"maxclass" : "comment",
					"numinlets" : 1,
					"numoutlets" : 0,
					"patching_rect" : [ 40.5, 718.0, 150.0, 20.0 ],
					"presentation" : 1,
					"presentation_rect" : [ 17.0, 319.16665244102478, 99.598127961158752, 20.0 ],
					"text" : "Staccato"
				}

			}
, 			{
				"box" : 				{
					"id" : "obj-539",
					"maxclass" : "newobj",
					"numinlets" : 0,
					"numoutlets" : 1,
					"outlettype" : [ "" ],
					"patching_rect" : [ 81.142534255981445, 633.0, 204.476635932922363, 22.0 ],
					"text" : "r ea_master_arm1_thrusting_active"
				}

			}
, 			{
				"box" : 				{
					"id" : "obj-684",
					"maxclass" : "newobj",
					"numinlets" : 1,
					"numoutlets" : 0,
					"patching_rect" : [ 392.75, 699.0, 197.0, 22.0 ],
					"text" : "s ea_behavior_thrusting_active_set"
				}

			}
, 			{
				"box" : 				{
					"id" : "obj-685",
					"maxclass" : "newobj",
					"numinlets" : 2,
					"numoutlets" : 1,
					"outlettype" : [ "" ],
					"patching_rect" : [ 296.0, 665.0, 58.0, 22.0 ],
					"text" : "pak 1 0.1"
				}

			}
, 			{
				"box" : 				{
					"id" : "obj-686",
					"maxclass" : "toggle",
					"numinlets" : 1,
					"numoutlets" : 1,
					"outlettype" : [ "int" ],
					"parameter_enable" : 0,
					"patching_rect" : [ 296.0, 634.0, 24.0, 24.0 ],
					"presentation" : 1,
					"presentation_rect" : [ 151.75, 289.0, 24.0, 24.0 ],
					"varname" : "ea_arm1_thrusting_active"
				}

			}
, 			{
				"box" : 				{
					"id" : "obj-687",
					"maxclass" : "comment",
					"numinlets" : 1,
					"numoutlets" : 0,
					"patching_rect" : [ 40.5, 635.0, 29.0, 20.0 ],
					"presentation" : 1,
					"presentation_rect" : [ 151.75, 267.16665244102478, 29.0, 20.0 ],
					"text" : "1"
				}

			}
, 			{
				"box" : 				{
					"id" : "obj-688",
					"maxclass" : "newobj",
					"numinlets" : 1,
					"numoutlets" : 3,
					"outlettype" : [ "int", "float", "" ],
					"patching_rect" : [ 392.5, 665.0, 451.75, 22.0 ],
					"text" : "unpack 1 0.1 s"
				}

			}
, 			{
				"box" : 				{
					"id" : "obj-689",
					"maxclass" : "message",
					"numinlets" : 2,
					"numoutlets" : 1,
					"outlettype" : [ "" ],
					"patching_rect" : [ 392.5, 635.0, 88.0, 22.0 ],
					"text" : "$1 $2 onshape"
				}

			}
, 			{
				"box" : 				{
					"id" : "obj-690",
					"maxclass" : "newobj",
					"numinlets" : 1,
					"numoutlets" : 0,
					"patching_rect" : [ 825.25, 699.0, 192.0, 22.0 ],
					"text" : "s ea_behavior_thrusting_body_set"
				}

			}
, 			{
				"box" : 				{
					"id" : "obj-691",
					"maxclass" : "newobj",
					"numinlets" : 1,
					"numoutlets" : 0,
					"patching_rect" : [ 608.875, 699.0, 199.0, 22.0 ],
					"text" : "s ea_behavior_thrusting_preset_set"
				}

			}
, 			{
				"box" : 				{
					"format" : 6,
					"id" : "obj-692",
					"maxclass" : "flonum",
					"numinlets" : 1,
					"numoutlets" : 2,
					"outlettype" : [ "", "bang" ],
					"parameter_enable" : 0,
					"patching_rect" : [ 324.5, 635.0, 50.0, 22.0 ],
					"presentation" : 1,
					"presentation_rect" : [ 178.25, 290.0, 50.0, 22.0 ],
					"varname" : "ea_arm1_thrusting_preset"
				}

			}
, 			{
				"box" : 				{
					"id" : "obj-693",
					"maxclass" : "comment",
					"numinlets" : 1,
					"numoutlets" : 0,
					"patching_rect" : [ 40.75, 591.0, 150.0, 20.0 ],
					"presentation" : 1,
					"presentation_rect" : [ 17.0, 267.16665244102478, 99.598127961158752, 20.0 ],
					"text" : "Thrusting"
				}

			}
, 			{
				"box" : 				{
					"id" : "obj-369",
					"maxclass" : "newobj",
					"numinlets" : 0,
					"numoutlets" : 1,
					"outlettype" : [ "" ],
					"patching_rect" : [ 81.392534255981445, 525.0, 203.476635932922363, 22.0 ],
					"text" : "r ea_master_arm1_particles_active"
				}

			}
, 			{
				"box" : 				{
					"id" : "obj-514",
					"maxclass" : "newobj",
					"numinlets" : 1,
					"numoutlets" : 0,
					"patching_rect" : [ 393.0, 591.0, 196.0, 22.0 ],
					"text" : "s ea_behavior_particles_active_set"
				}

			}
, 			{
				"box" : 				{
					"id" : "obj-515",
					"maxclass" : "newobj",
					"numinlets" : 2,
					"numoutlets" : 1,
					"outlettype" : [ "" ],
					"patching_rect" : [ 296.25, 557.0, 58.0, 22.0 ],
					"text" : "pak 1 0.1"
				}

			}
, 			{
				"box" : 				{
					"id" : "obj-516",
					"maxclass" : "toggle",
					"numinlets" : 1,
					"numoutlets" : 1,
					"outlettype" : [ "int" ],
					"parameter_enable" : 0,
					"patching_rect" : [ 296.25, 526.0, 24.0, 24.0 ],
					"presentation" : 1,
					"presentation_rect" : [ 151.75, 237.517668962478638, 24.0, 24.0 ],
					"varname" : "ea_arm1_particles_active"
				}

			}
, 			{
				"box" : 				{
					"id" : "obj-517",
					"maxclass" : "comment",
					"numinlets" : 1,
					"numoutlets" : 0,
					"patching_rect" : [ 40.75, 527.0, 29.0, 20.0 ],
					"presentation" : 1,
					"presentation_rect" : [ 151.75, 215.684321403503418, 29.0, 20.0 ],
					"text" : "1"
				}

			}
, 			{
				"box" : 				{
					"id" : "obj-518",
					"maxclass" : "newobj",
					"numinlets" : 1,
					"numoutlets" : 3,
					"outlettype" : [ "int", "float", "" ],
					"patching_rect" : [ 392.75, 557.0, 451.75, 22.0 ],
					"text" : "unpack 1 0.1 s"
				}

			}
, 			{
				"box" : 				{
					"id" : "obj-519",
					"maxclass" : "message",
					"numinlets" : 2,
					"numoutlets" : 1,
					"outlettype" : [ "" ],
					"patching_rect" : [ 392.75, 527.0, 88.0, 22.0 ],
					"text" : "$1 $2 onshape"
				}

			}
, 			{
				"box" : 				{
					"id" : "obj-520",
					"maxclass" : "newobj",
					"numinlets" : 1,
					"numoutlets" : 0,
					"patching_rect" : [ 825.5, 591.0, 191.0, 22.0 ],
					"text" : "s ea_behavior_particles_body_set"
				}

			}
, 			{
				"box" : 				{
					"id" : "obj-521",
					"maxclass" : "newobj",
					"numinlets" : 1,
					"numoutlets" : 0,
					"patching_rect" : [ 609.125, 591.0, 198.0, 22.0 ],
					"text" : "s ea_behavior_particles_preset_set"
				}

			}
, 			{
				"box" : 				{
					"format" : 6,
					"id" : "obj-522",
					"maxclass" : "flonum",
					"numinlets" : 1,
					"numoutlets" : 2,
					"outlettype" : [ "", "bang" ],
					"parameter_enable" : 0,
					"patching_rect" : [ 324.75, 527.0, 50.0, 22.0 ],
					"presentation" : 1,
					"presentation_rect" : [ 178.25, 238.517668962478638, 50.0, 22.0 ],
					"varname" : "ea_arm1_particles_preset"
				}

			}
, 			{
				"box" : 				{
					"id" : "obj-523",
					"maxclass" : "comment",
					"numinlets" : 1,
					"numoutlets" : 0,
					"patching_rect" : [ 43.0, 495.0, 150.0, 20.0 ],
					"presentation" : 1,
					"presentation_rect" : [ 17.0, 215.684321403503418, 99.598127961158752, 20.0 ],
					"text" : "Particles"
				}

			}
, 			{
				"box" : 				{
					"id" : "obj-338",
					"maxclass" : "newobj",
					"numinlets" : 0,
					"numoutlets" : 1,
					"outlettype" : [ "" ],
					"patching_rect" : [ 87.642534255981445, 413.0, 206.476635932922363, 22.0 ],
					"text" : "r ea_master_arm1_levitation_active"
				}

			}
, 			{
				"box" : 				{
					"id" : "obj-322",
					"maxclass" : "newobj",
					"numinlets" : 0,
					"numoutlets" : 1,
					"outlettype" : [ "" ],
					"patching_rect" : [ 95.0, 303.0, 193.0, 22.0 ],
					"text" : "r ea_master_arm1_physics_preset"
				}

			}
, 			{
				"box" : 				{
					"id" : "obj-157",
					"maxclass" : "newobj",
					"numinlets" : 1,
					"numoutlets" : 0,
					"patching_rect" : [ 399.25, 479.0, 199.0, 22.0 ],
					"text" : "s ea_behavior_levitation_active_set"
				}

			}
, 			{
				"box" : 				{
					"id" : "obj-156",
					"maxclass" : "newobj",
					"numinlets" : 2,
					"numoutlets" : 1,
					"outlettype" : [ "" ],
					"patching_rect" : [ 302.5, 445.0, 58.0, 22.0 ],
					"text" : "pak 1 0.1"
				}

			}
, 			{
				"box" : 				{
					"id" : "obj-155",
					"maxclass" : "toggle",
					"numinlets" : 1,
					"numoutlets" : 1,
					"outlettype" : [ "int" ],
					"parameter_enable" : 0,
					"patching_rect" : [ 302.5, 414.0, 24.0, 24.0 ],
					"presentation" : 1,
					"presentation_rect" : [ 150.75, 188.048279881477356, 24.0, 24.0 ],
					"varname" : "ea_arm1_levitation_active"
				}

			}
, 			{
				"box" : 				{
					"id" : "obj-148",
					"maxclass" : "comment",
					"numinlets" : 1,
					"numoutlets" : 0,
					"patching_rect" : [ 47.0, 415.0, 29.0, 20.0 ],
					"presentation" : 1,
					"presentation_rect" : [ 150.75, 166.214932322502136, 29.0, 20.0 ],
					"text" : "1"
				}

			}
, 			{
				"box" : 				{
					"id" : "obj-149",
					"maxclass" : "newobj",
					"numinlets" : 1,
					"numoutlets" : 3,
					"outlettype" : [ "int", "float", "" ],
					"patching_rect" : [ 399.0, 445.0, 451.75, 22.0 ],
					"text" : "unpack 1 0.1 s"
				}

			}
, 			{
				"box" : 				{
					"id" : "obj-150",
					"maxclass" : "message",
					"numinlets" : 2,
					"numoutlets" : 1,
					"outlettype" : [ "" ],
					"patching_rect" : [ 399.0, 415.0, 88.0, 22.0 ],
					"text" : "$1 $2 onshape"
				}

			}
, 			{
				"box" : 				{
					"id" : "obj-151",
					"maxclass" : "newobj",
					"numinlets" : 1,
					"numoutlets" : 0,
					"patching_rect" : [ 831.75, 479.0, 193.0, 22.0 ],
					"text" : "s ea_behavior_levitation_body_set"
				}

			}
, 			{
				"box" : 				{
					"id" : "obj-152",
					"maxclass" : "newobj",
					"numinlets" : 1,
					"numoutlets" : 0,
					"patching_rect" : [ 615.375, 479.0, 201.0, 22.0 ],
					"text" : "s ea_behavior_levitation_preset_set"
				}

			}
, 			{
				"box" : 				{
					"format" : 6,
					"id" : "obj-153",
					"maxclass" : "flonum",
					"numinlets" : 1,
					"numoutlets" : 2,
					"outlettype" : [ "", "bang" ],
					"parameter_enable" : 0,
					"patching_rect" : [ 331.0, 415.0, 50.0, 22.0 ],
					"presentation" : 1,
					"presentation_rect" : [ 177.25, 189.048279881477356, 50.0, 22.0 ],
					"varname" : "ea_arm1_levitation_preset"
				}

			}
, 			{
				"box" : 				{
					"id" : "obj-147",
					"maxclass" : "comment",
					"numinlets" : 1,
					"numoutlets" : 0,
					"patching_rect" : [ 47.25, 382.0, 150.0, 20.0 ],
					"presentation" : 1,
					"presentation_rect" : [ 17.0, 166.214932322502136, 98.598127961158752, 20.0 ],
					"text" : "Levitation"
				}

			}
, 			{
				"box" : 				{
					"id" : "obj-31",
					"maxclass" : "comment",
					"numinlets" : 1,
					"numoutlets" : 0,
					"patching_rect" : [ 47.25, 303.0, 29.0, 20.0 ],
					"presentation" : 1,
					"presentation_rect" : [ 150.75, 112.0, 29.0, 20.0 ],
					"text" : "1"
				}

			}
, 			{
				"box" : 				{
					"id" : "obj-25",
					"maxclass" : "newobj",
					"numinlets" : 1,
					"numoutlets" : 2,
					"outlettype" : [ "float", "" ],
					"patching_rect" : [ 369.25, 333.0, 77.0, 22.0 ],
					"text" : "unpack 0.1 s"
				}

			}
, 			{
				"box" : 				{
					"id" : "obj-18",
					"maxclass" : "message",
					"numinlets" : 2,
					"numoutlets" : 1,
					"outlettype" : [ "" ],
					"patching_rect" : [ 369.25, 303.0, 71.0, 22.0 ],
					"text" : "$1 onshape"
				}

			}
, 			{
				"box" : 				{
					"id" : "obj-142",
					"maxclass" : "newobj",
					"numinlets" : 1,
					"numoutlets" : 0,
					"patching_rect" : [ 519.0, 371.0, 133.0, 22.0 ],
					"text" : "s ea_physics_body_set"
				}

			}
, 			{
				"box" : 				{
					"id" : "obj-9",
					"maxclass" : "newobj",
					"numinlets" : 1,
					"numoutlets" : 0,
					"patching_rect" : [ 369.25, 371.0, 141.0, 22.0 ],
					"text" : "s ea_physics_preset_set"
				}

			}
, 			{
				"box" : 				{
					"format" : 6,
					"id" : "obj-6",
					"maxclass" : "flonum",
					"numinlets" : 1,
					"numoutlets" : 2,
					"outlettype" : [ "", "bang" ],
					"parameter_enable" : 0,
					"patching_rect" : [ 301.25, 303.0, 50.0, 22.0 ],
					"presentation" : 1,
					"presentation_rect" : [ 150.75, 140.0, 50.0, 22.0 ],
					"varname" : "ea_arm1_physics_preset[1]"
				}

			}
, 			{
				"box" : 				{
					"id" : "obj-39",
					"maxclass" : "comment",
					"numinlets" : 1,
					"numoutlets" : 0,
					"patching_rect" : [ 49.0, 264.0, 120.0, 20.0 ],
					"presentation" : 1,
					"presentation_rect" : [ 17.0, 112.0, 120.0, 20.0 ],
					"text" : "physics general"
				}

			}
, 			{
				"box" : 				{
					"id" : "obj-15",
					"maxclass" : "newobj",
					"numinlets" : 0,
					"numoutlets" : 1,
					"outlettype" : [ "" ],
					"patching_rect" : [ 129.0, 30.0, 115.0, 22.0 ],
					"text" : "r master_preset_set"
				}

			}
, 			{
				"box" : 				{
					"fontname" : "Arial",
					"fontsize" : 12.0,
					"id" : "obj-251",
					"maxclass" : "newobj",
					"numinlets" : 1,
					"numoutlets" : 1,
					"outlettype" : [ "" ],
					"patching_rect" : [ 652.0, 129.0, 95.0, 22.0 ],
					"text" : "expr $f1 * 1000."
				}

			}
, 			{
				"box" : 				{
					"fontname" : "Arial",
					"fontsize" : 9.0,
					"id" : "obj-43",
					"maxclass" : "number",
					"numinlets" : 1,
					"numoutlets" : 2,
					"outlettype" : [ "", "bang" ],
					"parameter_enable" : 0,
					"patching_rect" : [ 652.0, 43.0, 42.0, 19.0 ],
					"presentation" : 1,
					"presentation_rect" : [ 568.5, 52.0, 42.0, 19.0 ]
				}

			}
, 			{
				"box" : 				{
					"fontname" : "Arial",
					"fontsize" : 12.0,
					"id" : "obj-194",
					"maxclass" : "message",
					"numinlets" : 2,
					"numoutlets" : 1,
					"outlettype" : [ "" ],
					"patching_rect" : [ 652.0, 74.0, 43.0, 22.0 ],
					"text" : "set $1"
				}

			}
, 			{
				"box" : 				{
					"id" : "obj-111",
					"maxclass" : "button",
					"numinlets" : 1,
					"numoutlets" : 1,
					"outlettype" : [ "bang" ],
					"parameter_enable" : 0,
					"patching_rect" : [ 625.0, 43.0, 20.0, 20.0 ],
					"presentation" : 1,
					"presentation_rect" : [ 541.5, 52.0, 20.0, 20.0 ]
				}

			}
, 			{
				"box" : 				{
					"fontname" : "Arial",
					"fontsize" : 12.0,
					"id" : "obj-44",
					"maxclass" : "number",
					"numinlets" : 1,
					"numoutlets" : 2,
					"outlettype" : [ "", "bang" ],
					"parameter_enable" : 0,
					"patching_rect" : [ 652.0, 99.0, 50.0, 22.0 ]
				}

			}
, 			{
				"box" : 				{
					"fontname" : "Arial",
					"fontsize" : 12.0,
					"format" : 6,
					"id" : "obj-48",
					"maxclass" : "flonum",
					"numinlets" : 1,
					"numoutlets" : 2,
					"outlettype" : [ "", "bang" ],
					"parameter_enable" : 0,
					"patching_rect" : [ 652.0, 222.0, 50.0, 22.0 ]
				}

			}
, 			{
				"box" : 				{
					"fontname" : "Arial",
					"fontsize" : 12.0,
					"id" : "obj-93",
					"maxclass" : "newobj",
					"numinlets" : 1,
					"numoutlets" : 1,
					"outlettype" : [ "" ],
					"patching_rect" : [ 652.0, 198.0, 104.0, 22.0 ],
					"text" : "expr $f1 / 100000"
				}

			}
, 			{
				"box" : 				{
					"fontname" : "Arial",
					"fontsize" : 13.0,
					"id" : "obj-88",
					"maxclass" : "message",
					"numinlets" : 2,
					"numoutlets" : 1,
					"outlettype" : [ "" ],
					"patching_rect" : [ 652.0, 153.0, 86.0, 23.0 ],
					"text" : "0, 100000 $1"
				}

			}
, 			{
				"box" : 				{
					"fontname" : "Arial",
					"fontsize" : 12.0,
					"id" : "obj-49",
					"maxclass" : "newobj",
					"numinlets" : 3,
					"numoutlets" : 2,
					"outlettype" : [ "", "bang" ],
					"patching_rect" : [ 652.0, 175.0, 64.0, 22.0 ],
					"text" : "line 1 100"
				}

			}
, 			{
				"box" : 				{
					"fontname" : "Arial",
					"fontsize" : 11.0,
					"hidden" : 1,
					"id" : "obj-50",
					"maxclass" : "newobj",
					"numinlets" : 1,
					"numoutlets" : 2,
					"outlettype" : [ "int", "bang" ],
					"patching_rect" : [ 260.25, 72.0, 32.5, 21.0 ],
					"text" : "t i b"
				}

			}
, 			{
				"box" : 				{
					"fontname" : "Arial",
					"fontsize" : 11.0,
					"hidden" : 1,
					"id" : "obj-51",
					"maxclass" : "newobj",
					"numinlets" : 2,
					"numoutlets" : 1,
					"outlettype" : [ "" ],
					"patching_rect" : [ 260.25, 99.0, 45.0, 21.0 ],
					"text" : "pack f i"
				}

			}
, 			{
				"box" : 				{
					"fontname" : "Arial",
					"fontsize" : 11.0,
					"hidden" : 1,
					"id" : "obj-54",
					"maxclass" : "message",
					"numinlets" : 2,
					"numoutlets" : 1,
					"outlettype" : [ "" ],
					"patching_rect" : [ 360.25, 121.0, 62.0, 21.0 ],
					"text" : "store 1000"
				}

			}
, 			{
				"box" : 				{
					"fontname" : "Arial",
					"fontsize" : 11.0,
					"hidden" : 1,
					"id" : "obj-58",
					"maxclass" : "message",
					"numinlets" : 2,
					"numoutlets" : 1,
					"outlettype" : [ "" ],
					"patching_rect" : [ 260.25, 121.0, 95.0, 21.0 ],
					"text" : "recall 1000 $2 $1"
				}

			}
, 			{
				"box" : 				{
					"fontname" : "Arial",
					"fontsize" : 12.0,
					"hidden" : 1,
					"id" : "obj-61",
					"maxclass" : "message",
					"numinlets" : 2,
					"numoutlets" : 1,
					"outlettype" : [ "" ],
					"patching_rect" : [ 250.0, 18.0, 32.5, 22.0 ],
					"text" : "0"
				}

			}
, 			{
				"box" : 				{
					"fontname" : "Arial",
					"fontsize" : 9.0,
					"id" : "obj-84",
					"maxclass" : "number",
					"numinlets" : 1,
					"numoutlets" : 2,
					"outlettype" : [ "", "bang" ],
					"parameter_enable" : 0,
					"patching_rect" : [ 250.0, 43.0, 41.0, 19.0 ],
					"presentation" : 1,
					"presentation_rect" : [ 166.5, 52.0, 41.0, 19.0 ]
				}

			}
, 			{
				"box" : 				{
					"floatoutput" : 1,
					"id" : "obj-85",
					"maxclass" : "slider",
					"numinlets" : 1,
					"numoutlets" : 1,
					"orientation" : 1,
					"outlettype" : [ "" ],
					"parameter_enable" : 0,
					"patching_rect" : [ 296.0, 43.0, 320.0, 17.0 ],
					"presentation" : 1,
					"presentation_rect" : [ 212.5, 52.0, 320.0, 17.0 ],
					"size" : 1.0
				}

			}
, 			{
				"box" : 				{
					"fontname" : "Arial",
					"fontsize" : 12.0,
					"hidden" : 1,
					"id" : "obj-280",
					"maxclass" : "message",
					"numinlets" : 2,
					"numoutlets" : 1,
					"outlettype" : [ "" ],
					"patching_rect" : [ 55.25, 64.0, 141.0, 22.0 ],
					"text" : "read master_control.json"
				}

			}
, 			{
				"box" : 				{
					"fontname" : "Arial",
					"fontsize" : 12.0,
					"hidden" : 1,
					"id" : "obj-278",
					"maxclass" : "newobj",
					"numinlets" : 1,
					"numoutlets" : 1,
					"outlettype" : [ "bang" ],
					"patching_rect" : [ 62.0, 30.0, 60.0, 22.0 ],
					"text" : "loadbang"
				}

			}
, 			{
				"box" : 				{
					"fontname" : "Verdana Bold",
					"fontsize" : 9.0,
					"id" : "obj-163",
					"maxclass" : "comment",
					"numinlets" : 1,
					"numoutlets" : 0,
					"patching_rect" : [ 50.0, 92.0, 48.0, 17.0 ],
					"presentation" : 1,
					"presentation_rect" : [ 17.0, 33.0, 48.0, 17.0 ],
					"text" : "presets"
				}

			}
, 			{
				"box" : 				{
					"angle" : 0.0,
					"bgcolor" : [ 0.941176, 0.941176, 0.941176, 1.0 ],
					"border" : 1,
					"bordercolor" : [ 0.823529, 0.823529, 0.823529, 1.0 ],
					"hidden" : 1,
					"id" : "obj-164",
					"maxclass" : "panel",
					"mode" : 0,
					"numinlets" : 1,
					"numoutlets" : 0,
					"patching_rect" : [ 49.0, 92.0, 138.0, 18.0 ],
					"proportion" : 0.39,
					"rounded" : 0
				}

			}
, 			{
				"box" : 				{
					"fontname" : "Verdana",
					"fontsize" : 9.0,
					"id" : "obj-166",
					"maxclass" : "comment",
					"numinlets" : 1,
					"numoutlets" : 0,
					"patching_rect" : [ 125.0, 115.0, 36.0, 17.0 ],
					"presentation" : 1,
					"presentation_rect" : [ 109.5, 33.0, 36.0, 17.0 ],
					"text" : "recall"
				}

			}
, 			{
				"box" : 				{
					"fontname" : "Verdana",
					"fontsize" : 9.0,
					"id" : "obj-167",
					"maxclass" : "comment",
					"numinlets" : 1,
					"numoutlets" : 0,
					"patching_rect" : [ 62.0, 115.0, 34.0, 17.0 ],
					"presentation" : 1,
					"presentation_rect" : [ 70.0, 33.0, 34.0, 17.0 ],
					"text" : "store"
				}

			}
, 			{
				"box" : 				{
					"fontname" : "Verdana",
					"fontsize" : 9.0,
					"hidden" : 1,
					"id" : "obj-168",
					"maxclass" : "comment",
					"numinlets" : 1,
					"numoutlets" : 0,
					"patching_rect" : [ 61.0, 161.0, 44.0, 17.0 ],
					"text" : "presets"
				}

			}
, 			{
				"box" : 				{
					"allowdrag" : 0,
					"fontname" : "Verdana",
					"fontsize" : 9.0,
					"id" : "obj-169",
					"items" : [ "read", ",", "write", ",", "clientwindow", ",", "storagewindow" ],
					"labelclick" : 1,
					"maxclass" : "umenu",
					"numinlets" : 1,
					"numoutlets" : 3,
					"outlettype" : [ "int", "", "" ],
					"parameter_enable" : 0,
					"patching_rect" : [ 61.0, 180.0, 78.0, 19.0 ],
					"presentation" : 1,
					"presentation_rect" : [ 70.0, 75.0, 87.5, 19.0 ]
				}

			}
, 			{
				"box" : 				{
					"fontname" : "Verdana",
					"fontsize" : 9.0,
					"format" : 6,
					"id" : "obj-203",
					"maxclass" : "flonum",
					"numinlets" : 1,
					"numoutlets" : 2,
					"outlettype" : [ "", "bang" ],
					"parameter_enable" : 0,
					"patching_rect" : [ 125.0, 135.0, 48.0, 19.0 ],
					"presentation" : 1,
					"presentation_rect" : [ 109.5, 52.0, 48.0, 19.0 ],
					"triscale" : 0.9
				}

			}
, 			{
				"box" : 				{
					"fontname" : "Verdana",
					"fontsize" : 9.0,
					"id" : "obj-204",
					"maxclass" : "number",
					"numinlets" : 1,
					"numoutlets" : 2,
					"outlettype" : [ "", "bang" ],
					"parameter_enable" : 0,
					"patching_rect" : [ 77.0, 135.0, 35.0, 19.0 ],
					"presentation" : 1,
					"presentation_rect" : [ 70.0, 52.0, 35.0, 19.0 ],
					"triscale" : 0.9
				}

			}
, 			{
				"box" : 				{
					"id" : "obj-205",
					"maxclass" : "button",
					"numinlets" : 1,
					"numoutlets" : 1,
					"outlettype" : [ "bang" ],
					"parameter_enable" : 0,
					"patching_rect" : [ 61.0, 135.0, 19.0, 19.0 ],
					"presentation" : 1,
					"presentation_rect" : [ 48.0, 52.0, 19.0, 19.0 ]
				}

			}
, 			{
				"box" : 				{
					"fontname" : "Verdana",
					"fontsize" : 9.0,
					"hidden" : 1,
					"id" : "obj-206",
					"maxclass" : "newobj",
					"numinlets" : 2,
					"numoutlets" : 1,
					"outlettype" : [ "" ],
					"patching_rect" : [ 61.0, 156.0, 66.0, 19.0 ],
					"text" : "pack store 0"
				}

			}
, 			{
				"box" : 				{
					"autorestore" : "master_control.json",
					"fontname" : "Verdana",
					"fontsize" : 9.0,
					"hidden" : 1,
					"id" : "obj-207",
					"maxclass" : "newobj",
					"numinlets" : 1,
					"numoutlets" : 1,
					"outlettype" : [ "" ],
					"patching_rect" : [ 61.0, 200.0, 67.0, 19.0 ],
					"saved_object_attributes" : 					{
						"client_rect" : [ 425, 63, 1089, 469 ],
						"parameter_enable" : 0,
						"parameter_mappable" : 0,
						"storage_rect" : [ 156, 256, 1488, 1200 ]
					}
,
					"text" : "pattrstorage",
					"varname" : "u845000342"
				}

			}
, 			{
				"box" : 				{
					"fontname" : "Verdana",
					"fontsize" : 9.0,
					"hidden" : 1,
					"id" : "obj-211",
					"maxclass" : "newobj",
					"numinlets" : 1,
					"numoutlets" : 4,
					"outlettype" : [ "", "", "", "" ],
					"patching_rect" : [ 129.0, 200.0, 53.0, 19.0 ],
					"restore" : 					{
						"ea_arm1_fluidity_active" : [ 0 ],
						"ea_arm1_fluidity_active[1]" : [ 0 ],
						"ea_arm1_fluidity_preset" : [ 1.0 ],
						"ea_arm1_fluidity_preset[1]" : [ 1.0 ],
						"ea_arm1_levitation_active" : [ 0 ],
						"ea_arm1_levitation_preset" : [ 1.0 ],
						"ea_arm1_particles_active" : [ 0 ],
						"ea_arm1_particles_preset" : [ 1.0 ],
						"ea_arm1_physics_preset[1]" : [ 30.0 ],
						"ea_arm1_rotoscil0_active" : [ 0 ],
						"ea_arm1_rotoscil1_active" : [ 0 ],
						"ea_arm1_rotoscil2_active" : [ 0 ],
						"ea_arm1_rotoscil3_active" : [ 1 ],
						"ea_arm1_rotoscil_preset" : [ 1.0 ],
						"ea_arm1_staccato_active" : [ 0 ],
						"ea_arm1_staccato_preset" : [ 1.0 ],
						"ea_arm1_thrusting_active" : [ 0 ],
						"ea_arm1_thrusting_preset" : [ 1.0 ]
					}
,
					"text" : "autopattr",
					"varname" : "u729000346"
				}

			}
, 			{
				"box" : 				{
					"angle" : 0.0,
					"bgcolor" : [ 0.968627, 0.968627, 0.968627, 1.0 ],
					"border" : 1,
					"bordercolor" : [ 0.901961, 0.901961, 0.901961, 1.0 ],
					"hidden" : 1,
					"id" : "obj-212",
					"maxclass" : "panel",
					"mode" : 0,
					"numinlets" : 1,
					"numoutlets" : 0,
					"patching_rect" : [ 49.0, 111.0, 138.0, 112.0 ],
					"proportion" : 0.39,
					"rounded" : 0
				}

			}
 ],
		"lines" : [ 			{
				"patchline" : 				{
					"destination" : [ "obj-4", 0 ],
					"source" : [ "obj-1", 0 ]
				}

			}
, 			{
				"patchline" : 				{
					"destination" : [ "obj-1029", 0 ],
					"source" : [ "obj-1025", 0 ]
				}

			}
, 			{
				"patchline" : 				{
					"destination" : [ "obj-1025", 0 ],
					"source" : [ "obj-1026", 0 ]
				}

			}
, 			{
				"patchline" : 				{
					"destination" : [ "obj-1024", 0 ],
					"source" : [ "obj-1028", 0 ]
				}

			}
, 			{
				"patchline" : 				{
					"destination" : [ "obj-1030", 0 ],
					"source" : [ "obj-1028", 2 ]
				}

			}
, 			{
				"patchline" : 				{
					"destination" : [ "obj-1031", 0 ],
					"source" : [ "obj-1028", 1 ]
				}

			}
, 			{
				"patchline" : 				{
					"destination" : [ "obj-1028", 0 ],
					"source" : [ "obj-1029", 0 ]
				}

			}
, 			{
				"patchline" : 				{
					"destination" : [ "obj-1025", 1 ],
					"source" : [ "obj-1032", 0 ]
				}

			}
, 			{
				"patchline" : 				{
					"destination" : [ "obj-316", 0 ],
					"source" : [ "obj-1034", 0 ]
				}

			}
, 			{
				"patchline" : 				{
					"destination" : [ "obj-1037", 0 ],
					"source" : [ "obj-1035", 2 ]
				}

			}
, 			{
				"patchline" : 				{
					"destination" : [ "obj-1038", 0 ],
					"source" : [ "obj-1035", 1 ]
				}

			}
, 			{
				"patchline" : 				{
					"destination" : [ "obj-314", 0 ],
					"source" : [ "obj-1035", 0 ]
				}

			}
, 			{
				"patchline" : 				{
					"destination" : [ "obj-1035", 0 ],
					"source" : [ "obj-1036", 0 ]
				}

			}
, 			{
				"patchline" : 				{
					"destination" : [ "obj-44", 0 ],
					"source" : [ "obj-111", 0 ]
				}

			}
, 			{
				"patchline" : 				{
					"destination" : [ "obj-17", 1 ],
					"order" : 2,
					"source" : [ "obj-12", 0 ]
				}

			}
, 			{
				"patchline" : 				{
					"destination" : [ "obj-28", 1 ],
					"order" : 1,
					"source" : [ "obj-12", 0 ]
				}

			}
, 			{
				"patchline" : 				{
					"destination" : [ "obj-3", 1 ],
					"order" : 3,
					"source" : [ "obj-12", 0 ]
				}

			}
, 			{
				"patchline" : 				{
					"destination" : [ "obj-316", 1 ],
					"order" : 0,
					"source" : [ "obj-12", 0 ]
				}

			}
, 			{
				"patchline" : 				{
					"destination" : [ "obj-30", 0 ],
					"source" : [ "obj-137", 0 ]
				}

			}
, 			{
				"patchline" : 				{
					"destination" : [ "obj-19", 0 ],
					"source" : [ "obj-14", 0 ]
				}

			}
, 			{
				"patchline" : 				{
					"destination" : [ "obj-151", 0 ],
					"source" : [ "obj-149", 2 ]
				}

			}
, 			{
				"patchline" : 				{
					"destination" : [ "obj-152", 0 ],
					"source" : [ "obj-149", 1 ]
				}

			}
, 			{
				"patchline" : 				{
					"destination" : [ "obj-157", 0 ],
					"source" : [ "obj-149", 0 ]
				}

			}
, 			{
				"patchline" : 				{
					"destination" : [ "obj-203", 0 ],
					"source" : [ "obj-15", 0 ]
				}

			}
, 			{
				"patchline" : 				{
					"destination" : [ "obj-149", 0 ],
					"source" : [ "obj-150", 0 ]
				}

			}
, 			{
				"patchline" : 				{
					"destination" : [ "obj-156", 1 ],
					"source" : [ "obj-153", 0 ]
				}

			}
, 			{
				"patchline" : 				{
					"destination" : [ "obj-156", 0 ],
					"source" : [ "obj-155", 0 ]
				}

			}
, 			{
				"patchline" : 				{
					"destination" : [ "obj-150", 0 ],
					"source" : [ "obj-156", 0 ]
				}

			}
, 			{
				"patchline" : 				{
					"destination" : [ "obj-207", 0 ],
					"hidden" : 1,
					"midpoints" : [ 100.0, 151.0, 70.5, 151.0 ],
					"source" : [ "obj-169", 1 ]
				}

			}
, 			{
				"patchline" : 				{
					"destination" : [ "obj-21", 0 ],
					"source" : [ "obj-17", 0 ]
				}

			}
, 			{
				"patchline" : 				{
					"destination" : [ "obj-25", 0 ],
					"source" : [ "obj-18", 0 ]
				}

			}
, 			{
				"patchline" : 				{
					"destination" : [ "obj-17", 0 ],
					"source" : [ "obj-19", 0 ]
				}

			}
, 			{
				"patchline" : 				{
					"destination" : [ "obj-44", 0 ],
					"source" : [ "obj-194", 0 ]
				}

			}
, 			{
				"patchline" : 				{
					"destination" : [ "obj-16", 0 ],
					"source" : [ "obj-20", 0 ]
				}

			}
, 			{
				"patchline" : 				{
					"destination" : [ "obj-22", 0 ],
					"source" : [ "obj-20", 2 ]
				}

			}
, 			{
				"patchline" : 				{
					"destination" : [ "obj-23", 0 ],
					"source" : [ "obj-20", 1 ]
				}

			}
, 			{
				"patchline" : 				{
					"destination" : [ "obj-207", 0 ],
					"hidden" : 1,
					"midpoints" : [ 134.5, 152.0, 70.5, 152.0 ],
					"source" : [ "obj-203", 0 ]
				}

			}
, 			{
				"patchline" : 				{
					"destination" : [ "obj-206", 1 ],
					"hidden" : 1,
					"midpoints" : [ 86.5, 151.0, 117.5, 151.0 ],
					"source" : [ "obj-204", 0 ]
				}

			}
, 			{
				"patchline" : 				{
					"destination" : [ "obj-206", 0 ],
					"hidden" : 1,
					"source" : [ "obj-205", 0 ]
				}

			}
, 			{
				"patchline" : 				{
					"destination" : [ "obj-207", 0 ],
					"hidden" : 1,
					"source" : [ "obj-206", 0 ]
				}

			}
, 			{
				"patchline" : 				{
					"destination" : [ "obj-20", 0 ],
					"source" : [ "obj-21", 0 ]
				}

			}
, 			{
				"patchline" : 				{
					"destination" : [ "obj-274", 0 ],
					"source" : [ "obj-233", 0 ]
				}

			}
, 			{
				"patchline" : 				{
					"destination" : [ "obj-233", 0 ],
					"source" : [ "obj-234", 0 ]
				}

			}
, 			{
				"patchline" : 				{
					"destination" : [ "obj-142", 0 ],
					"source" : [ "obj-25", 1 ]
				}

			}
, 			{
				"patchline" : 				{
					"destination" : [ "obj-9", 0 ],
					"source" : [ "obj-25", 0 ]
				}

			}
, 			{
				"patchline" : 				{
					"destination" : [ "obj-88", 0 ],
					"source" : [ "obj-251", 0 ]
				}

			}
, 			{
				"patchline" : 				{
					"destination" : [ "obj-29", 0 ],
					"source" : [ "obj-26", 0 ]
				}

			}
, 			{
				"patchline" : 				{
					"destination" : [ "obj-232", 0 ],
					"source" : [ "obj-273", 0 ]
				}

			}
, 			{
				"patchline" : 				{
					"destination" : [ "obj-275", 0 ],
					"source" : [ "obj-273", 2 ]
				}

			}
, 			{
				"patchline" : 				{
					"destination" : [ "obj-276", 0 ],
					"source" : [ "obj-273", 1 ]
				}

			}
, 			{
				"patchline" : 				{
					"destination" : [ "obj-273", 0 ],
					"source" : [ "obj-274", 0 ]
				}

			}
, 			{
				"patchline" : 				{
					"destination" : [ "obj-233", 1 ],
					"source" : [ "obj-277", 0 ]
				}

			}
, 			{
				"patchline" : 				{
					"destination" : [ "obj-280", 0 ],
					"hidden" : 1,
					"source" : [ "obj-278", 0 ]
				}

			}
, 			{
				"patchline" : 				{
					"destination" : [ "obj-137", 0 ],
					"source" : [ "obj-28", 0 ]
				}

			}
, 			{
				"patchline" : 				{
					"destination" : [ "obj-207", 0 ],
					"hidden" : 1,
					"source" : [ "obj-280", 0 ]
				}

			}
, 			{
				"patchline" : 				{
					"destination" : [ "obj-60", 0 ],
					"source" : [ "obj-281", 0 ]
				}

			}
, 			{
				"patchline" : 				{
					"destination" : [ "obj-1034", 0 ],
					"source" : [ "obj-282", 4 ]
				}

			}
, 			{
				"patchline" : 				{
					"destination" : [ "obj-19", 0 ],
					"source" : [ "obj-282", 2 ]
				}

			}
, 			{
				"patchline" : 				{
					"destination" : [ "obj-29", 0 ],
					"source" : [ "obj-282", 3 ]
				}

			}
, 			{
				"patchline" : 				{
					"destination" : [ "obj-4", 0 ],
					"source" : [ "obj-282", 1 ]
				}

			}
, 			{
				"patchline" : 				{
					"destination" : [ "obj-28", 0 ],
					"source" : [ "obj-29", 0 ]
				}

			}
, 			{
				"patchline" : 				{
					"destination" : [ "obj-8", 0 ],
					"source" : [ "obj-3", 0 ]
				}

			}
, 			{
				"patchline" : 				{
					"destination" : [ "obj-140", 0 ],
					"source" : [ "obj-30", 2 ]
				}

			}
, 			{
				"patchline" : 				{
					"destination" : [ "obj-146", 0 ],
					"source" : [ "obj-30", 1 ]
				}

			}
, 			{
				"patchline" : 				{
					"destination" : [ "obj-27", 0 ],
					"source" : [ "obj-30", 0 ]
				}

			}
, 			{
				"patchline" : 				{
					"destination" : [ "obj-1034", 0 ],
					"source" : [ "obj-310", 0 ]
				}

			}
, 			{
				"patchline" : 				{
					"destination" : [ "obj-1036", 0 ],
					"source" : [ "obj-316", 0 ]
				}

			}
, 			{
				"patchline" : 				{
					"destination" : [ "obj-6", 0 ],
					"source" : [ "obj-322", 0 ]
				}

			}
, 			{
				"patchline" : 				{
					"destination" : [ "obj-155", 0 ],
					"source" : [ "obj-338", 0 ]
				}

			}
, 			{
				"patchline" : 				{
					"destination" : [ "obj-516", 0 ],
					"source" : [ "obj-369", 0 ]
				}

			}
, 			{
				"patchline" : 				{
					"destination" : [ "obj-3", 0 ],
					"source" : [ "obj-4", 0 ]
				}

			}
, 			{
				"patchline" : 				{
					"destination" : [ "obj-194", 0 ],
					"source" : [ "obj-43", 0 ]
				}

			}
, 			{
				"patchline" : 				{
					"destination" : [ "obj-251", 0 ],
					"source" : [ "obj-44", 0 ]
				}

			}
, 			{
				"patchline" : 				{
					"destination" : [ "obj-85", 0 ],
					"source" : [ "obj-48", 0 ]
				}

			}
, 			{
				"patchline" : 				{
					"destination" : [ "obj-93", 0 ],
					"source" : [ "obj-49", 0 ]
				}

			}
, 			{
				"patchline" : 				{
					"destination" : [ "obj-51", 1 ],
					"hidden" : 1,
					"source" : [ "obj-50", 0 ]
				}

			}
, 			{
				"patchline" : 				{
					"destination" : [ "obj-54", 0 ],
					"hidden" : 1,
					"source" : [ "obj-50", 1 ]
				}

			}
, 			{
				"patchline" : 				{
					"destination" : [ "obj-58", 0 ],
					"hidden" : 1,
					"source" : [ "obj-51", 0 ]
				}

			}
, 			{
				"patchline" : 				{
					"destination" : [ "obj-519", 0 ],
					"source" : [ "obj-515", 0 ]
				}

			}
, 			{
				"patchline" : 				{
					"destination" : [ "obj-515", 0 ],
					"source" : [ "obj-516", 0 ]
				}

			}
, 			{
				"patchline" : 				{
					"destination" : [ "obj-514", 0 ],
					"source" : [ "obj-518", 0 ]
				}

			}
, 			{
				"patchline" : 				{
					"destination" : [ "obj-520", 0 ],
					"source" : [ "obj-518", 2 ]
				}

			}
, 			{
				"patchline" : 				{
					"destination" : [ "obj-521", 0 ],
					"source" : [ "obj-518", 1 ]
				}

			}
, 			{
				"patchline" : 				{
					"destination" : [ "obj-518", 0 ],
					"source" : [ "obj-519", 0 ]
				}

			}
, 			{
				"patchline" : 				{
					"destination" : [ "obj-515", 1 ],
					"source" : [ "obj-522", 0 ]
				}

			}
, 			{
				"patchline" : 				{
					"destination" : [ "obj-686", 0 ],
					"source" : [ "obj-539", 0 ]
				}

			}
, 			{
				"patchline" : 				{
					"destination" : [ "obj-207", 0 ],
					"source" : [ "obj-54", 0 ]
				}

			}
, 			{
				"patchline" : 				{
					"destination" : [ "obj-207", 0 ],
					"source" : [ "obj-58", 0 ]
				}

			}
, 			{
				"patchline" : 				{
					"destination" : [ "obj-18", 0 ],
					"source" : [ "obj-6", 0 ]
				}

			}
, 			{
				"patchline" : 				{
					"destination" : [ "obj-282", 0 ],
					"source" : [ "obj-60", 0 ]
				}

			}
, 			{
				"patchline" : 				{
					"destination" : [ "obj-85", 0 ],
					"hidden" : 1,
					"source" : [ "obj-61", 0 ]
				}

			}
, 			{
				"patchline" : 				{
					"destination" : [ "obj-689", 0 ],
					"source" : [ "obj-685", 0 ]
				}

			}
, 			{
				"patchline" : 				{
					"destination" : [ "obj-685", 0 ],
					"source" : [ "obj-686", 0 ]
				}

			}
, 			{
				"patchline" : 				{
					"destination" : [ "obj-684", 0 ],
					"source" : [ "obj-688", 0 ]
				}

			}
, 			{
				"patchline" : 				{
					"destination" : [ "obj-690", 0 ],
					"source" : [ "obj-688", 2 ]
				}

			}
, 			{
				"patchline" : 				{
					"destination" : [ "obj-691", 0 ],
					"source" : [ "obj-688", 1 ]
				}

			}
, 			{
				"patchline" : 				{
					"destination" : [ "obj-688", 0 ],
					"source" : [ "obj-689", 0 ]
				}

			}
, 			{
				"patchline" : 				{
					"destination" : [ "obj-234", 0 ],
					"source" : [ "obj-69", 0 ]
				}

			}
, 			{
				"patchline" : 				{
					"destination" : [ "obj-685", 1 ],
					"source" : [ "obj-692", 0 ]
				}

			}
, 			{
				"patchline" : 				{
					"destination" : [ "obj-10", 0 ],
					"source" : [ "obj-7", 2 ]
				}

			}
, 			{
				"patchline" : 				{
					"destination" : [ "obj-11", 0 ],
					"source" : [ "obj-7", 1 ]
				}

			}
, 			{
				"patchline" : 				{
					"destination" : [ "obj-2", 0 ],
					"source" : [ "obj-7", 0 ]
				}

			}
, 			{
				"patchline" : 				{
					"destination" : [ "obj-856", 0 ],
					"source" : [ "obj-709", 0 ]
				}

			}
, 			{
				"patchline" : 				{
					"destination" : [ "obj-7", 0 ],
					"source" : [ "obj-8", 0 ]
				}

			}
, 			{
				"patchline" : 				{
					"destination" : [ "obj-50", 0 ],
					"hidden" : 1,
					"order" : 0,
					"source" : [ "obj-84", 0 ]
				}

			}
, 			{
				"patchline" : 				{
					"destination" : [ "obj-61", 0 ],
					"hidden" : 1,
					"order" : 1,
					"source" : [ "obj-84", 0 ]
				}

			}
, 			{
				"patchline" : 				{
					"destination" : [ "obj-51", 0 ],
					"hidden" : 1,
					"source" : [ "obj-85", 0 ]
				}

			}
, 			{
				"patchline" : 				{
					"destination" : [ "obj-859", 0 ],
					"source" : [ "obj-855", 0 ]
				}

			}
, 			{
				"patchline" : 				{
					"destination" : [ "obj-855", 0 ],
					"source" : [ "obj-856", 0 ]
				}

			}
, 			{
				"patchline" : 				{
					"destination" : [ "obj-854", 0 ],
					"source" : [ "obj-858", 0 ]
				}

			}
, 			{
				"patchline" : 				{
					"destination" : [ "obj-860", 0 ],
					"source" : [ "obj-858", 2 ]
				}

			}
, 			{
				"patchline" : 				{
					"destination" : [ "obj-861", 0 ],
					"source" : [ "obj-858", 1 ]
				}

			}
, 			{
				"patchline" : 				{
					"destination" : [ "obj-858", 0 ],
					"source" : [ "obj-859", 0 ]
				}

			}
, 			{
				"patchline" : 				{
					"destination" : [ "obj-855", 1 ],
					"source" : [ "obj-862", 0 ]
				}

			}
, 			{
				"patchline" : 				{
					"destination" : [ "obj-1026", 0 ],
					"source" : [ "obj-879", 0 ]
				}

			}
, 			{
				"patchline" : 				{
					"destination" : [ "obj-49", 0 ],
					"source" : [ "obj-88", 0 ]
				}

			}
, 			{
				"patchline" : 				{
					"destination" : [ "obj-48", 0 ],
					"source" : [ "obj-93", 0 ]
				}

			}
 ],
		"dependency_cache" : [ 			{
				"name" : "master_control.json",
				"bootpath" : "~/Projects/Incubatio/Software_Git/Incubatio/ExpressiveAliens_1arm/controls",
				"patcherrelativepath" : ".",
				"type" : "JSON",
				"implicit" : 1
			}
 ],
		"autosave" : 0
	}

}
