{
	"patcher" : 	{
		"fileversion" : 1,
		"appversion" : 		{
			"major" : 8,
			"minor" : 5,
			"revision" : 5,
			"architecture" : "x64",
			"modernui" : 1
		}
,
		"classnamespace" : "box",
		"rect" : [ 79.0, 425.0, 1298.0, 850.0 ],
		"bglocked" : 0,
		"openinpresentation" : 1,
		"default_fontsize" : 12.0,
		"default_fontface" : 0,
		"default_fontname" : "Arial",
		"gridonopen" : 1,
		"gridsize" : [ 15.0, 15.0 ],
		"gridsnaponopen" : 1,
		"objectsnaponopen" : 1,
		"statusbarvisible" : 2,
		"toolbarvisible" : 1,
		"lefttoolbarpinned" : 0,
		"toptoolbarpinned" : 0,
		"righttoolbarpinned" : 0,
		"bottomtoolbarpinned" : 0,
		"toolbars_unpinned_last_save" : 1,
		"tallnewobj" : 0,
		"boxanimatetime" : 200,
		"enablehscroll" : 1,
		"enablevscroll" : 1,
		"devicewidth" : 0.0,
		"description" : "",
		"digest" : "",
		"tags" : "",
		"style" : "",
		"subpatcher_template" : "",
		"assistshowspatchername" : 0,
		"boxes" : [ 			{
				"box" : 				{
					"id" : "obj-14",
					"maxclass" : "newobj",
					"numinlets" : 1,
					"numoutlets" : 0,
					"patching_rect" : [ 142.0, 320.0, 142.0, 22.0 ],
					"text" : "s raymarch_switch_arm1"
				}

			}
, 			{
				"box" : 				{
					"id" : "obj-13",
					"maxclass" : "comment",
					"numinlets" : 1,
					"numoutlets" : 0,
					"patching_rect" : [ 146.0, 536.0, 150.0, 20.0 ],
					"presentation" : 1,
					"presentation_rect" : [ 28.0, 296.0, 150.0, 20.0 ],
					"text" : "Scene Part3 Particles"
				}

			}
, 			{
				"box" : 				{
					"id" : "obj-7",
					"maxclass" : "comment",
					"numinlets" : 1,
					"numoutlets" : 0,
					"patching_rect" : [ 142.0, 433.0, 150.0, 20.0 ],
					"presentation" : 1,
					"presentation_rect" : [ 28.0, 236.0, 150.0, 20.0 ],
					"text" : "Scene Part2 Rotate"
				}

			}
, 			{
				"box" : 				{
					"id" : "obj-4",
					"maxclass" : "comment",
					"numinlets" : 1,
					"numoutlets" : 0,
					"patching_rect" : [ 142.0, 344.0, 150.0, 20.0 ],
					"presentation" : 1,
					"presentation_rect" : [ 28.0, 182.0, 150.0, 20.0 ],
					"text" : "Scene Part1 Fluidity"
				}

			}
, 			{
				"box" : 				{
					"addpoints" : [ 0.0, 0.0, 0, 0.164893617021277, 0.053333333333333, 0, 0.840425531914894, 0.946666666666667, 0, 1.0, 1.0, 0 ],
					"domain" : 1.0,
					"id" : "obj-38",
					"maxclass" : "function",
					"numinlets" : 1,
					"numoutlets" : 4,
					"outlettype" : [ "float", "", "", "bang" ],
					"parameter_enable" : 0,
					"patching_rect" : [ 1036.0, 410.0, 200.0, 100.0 ]
				}

			}
, 			{
				"box" : 				{
					"id" : "obj-31",
					"maxclass" : "newobj",
					"numinlets" : 1,
					"numoutlets" : 0,
					"patching_rect" : [ 996.0, 304.0, 198.0, 22.0 ],
					"text" : "s ea_master_arm1_particles_active"
				}

			}
, 			{
				"box" : 				{
					"id" : "obj-32",
					"maxclass" : "message",
					"numinlets" : 2,
					"numoutlets" : 1,
					"outlettype" : [ "" ],
					"patching_rect" : [ 933.25, 302.0, 29.5, 22.0 ],
					"text" : "0"
				}

			}
, 			{
				"box" : 				{
					"id" : "obj-33",
					"maxclass" : "newobj",
					"numinlets" : 1,
					"numoutlets" : 0,
					"patching_rect" : [ 996.0, 271.0, 187.0, 22.0 ],
					"text" : "s ea_master_arm1_fluidity_active"
				}

			}
, 			{
				"box" : 				{
					"id" : "obj-34",
					"maxclass" : "message",
					"numinlets" : 2,
					"numoutlets" : 1,
					"outlettype" : [ "" ],
					"patching_rect" : [ 933.25, 269.0, 29.5, 22.0 ],
					"text" : "0"
				}

			}
, 			{
				"box" : 				{
					"id" : "obj-30",
					"maxclass" : "newobj",
					"numinlets" : 1,
					"numoutlets" : 1,
					"outlettype" : [ "" ],
					"patching_rect" : [ 29.0, 684.6708984375, 87.0, 22.0 ],
					"text" : "expr $f1 * -180"
				}

			}
, 			{
				"box" : 				{
					"id" : "obj-29",
					"maxclass" : "newobj",
					"numinlets" : 0,
					"numoutlets" : 1,
					"outlettype" : [ "" ],
					"patching_rect" : [ 29.0, 649.0, 82.0, 22.0 ],
					"text" : "r scene_part2"
				}

			}
, 			{
				"box" : 				{
					"id" : "obj-304",
					"maxclass" : "newobj",
					"numinlets" : 1,
					"numoutlets" : 0,
					"patching_rect" : [ 1080.25, 786.979248046875, 91.0, 22.0 ],
					"text" : "s vis_osc_send"
				}

			}
, 			{
				"box" : 				{
					"id" : "obj-919",
					"maxclass" : "newobj",
					"numinlets" : 4,
					"numoutlets" : 1,
					"outlettype" : [ "" ],
					"patching_rect" : [ 1045.0, 794.6708984375, 114.0, 22.0 ],
					"text" : "pack 0.1 0.1 0.1 0.1"
				}

			}
, 			{
				"box" : 				{
					"id" : "obj-4685",
					"maxclass" : "newobj",
					"numinlets" : 1,
					"numoutlets" : 4,
					"outlettype" : [ "float", "float", "float", "float" ],
					"patching_rect" : [ 1045.25, 751.6708984375, 127.0, 22.0 ],
					"text" : "unpack 0.1 0.1 0.1 0.1"
				}

			}
, 			{
				"box" : 				{
					"id" : "obj-4686",
					"maxclass" : "newobj",
					"numinlets" : 1,
					"numoutlets" : 2,
					"outlettype" : [ "list", "" ],
					"patching_rect" : [ 1045.25, 717.1708984375, 77.0, 22.0 ],
					"text" : "jit.euler2quat"
				}

			}
, 			{
				"box" : 				{
					"fontname" : "Arial",
					"fontsize" : 9.0,
					"hidden" : 1,
					"id" : "obj-4687",
					"maxclass" : "newobj",
					"numinlets" : 3,
					"numoutlets" : 1,
					"outlettype" : [ "" ],
					"patching_rect" : [ 853.25, 747.1708984375, 119.0, 19.0 ],
					"text" : "expr ($f1 - $f2) / ( $f3 - $f2 )"
				}

			}
, 			{
				"box" : 				{
					"id" : "obj-4688",
					"maxclass" : "message",
					"numinlets" : 2,
					"numoutlets" : 1,
					"outlettype" : [ "" ],
					"patching_rect" : [ 987.25, 747.1708984375, 41.0, 22.0 ],
					"text" : "set $1"
				}

			}
, 			{
				"box" : 				{
					"fontname" : "Arial",
					"fontsize" : 9.0,
					"hidden" : 1,
					"id" : "obj-4689",
					"maxclass" : "newobj",
					"numinlets" : 3,
					"numoutlets" : 1,
					"outlettype" : [ "" ],
					"patching_rect" : [ 725.25, 747.1708984375, 118.0, 19.0 ],
					"text" : "expr $f2 + $f1 * ( $f3 - $f2 )"
				}

			}
, 			{
				"box" : 				{
					"fontname" : "Arial",
					"fontsize" : 12.0,
					"format" : 6,
					"id" : "obj-4690",
					"maxclass" : "flonum",
					"numinlets" : 1,
					"numoutlets" : 2,
					"outlettype" : [ "", "bang" ],
					"parameter_enable" : 0,
					"patching_rect" : [ 335.25, 744.6708984375, 46.0, 22.0 ],
					"presentation" : 1,
					"presentation_rect" : [ 319.0, 439.085444688796997, 50.0, 22.0 ],
					"varname" : "sceneRotZ_max"
				}

			}
, 			{
				"box" : 				{
					"fontname" : "Arial",
					"fontsize" : 12.0,
					"format" : 6,
					"id" : "obj-4691",
					"maxclass" : "flonum",
					"numinlets" : 1,
					"numoutlets" : 2,
					"outlettype" : [ "", "bang" ],
					"parameter_enable" : 0,
					"patching_rect" : [ 283.25, 744.6708984375, 46.0, 22.0 ],
					"presentation" : 1,
					"presentation_rect" : [ 268.0, 439.085444688796997, 50.0, 22.0 ],
					"triangle" : 0,
					"varname" : "sceneRotZ_min"
				}

			}
, 			{
				"box" : 				{
					"fontname" : "Arial",
					"fontsize" : 12.0,
					"format" : 6,
					"id" : "obj-4692",
					"maxclass" : "flonum",
					"numinlets" : 1,
					"numoutlets" : 2,
					"outlettype" : [ "", "bang" ],
					"parameter_enable" : 0,
					"patching_rect" : [ 232.25, 744.6708984375, 46.0, 22.0 ],
					"presentation" : 1,
					"presentation_rect" : [ 216.0, 439.085444688796997, 50.0, 22.0 ],
					"triangle" : 0,
					"varname" : "sceneRotZ"
				}

			}
, 			{
				"box" : 				{
					"floatoutput" : 1,
					"id" : "obj-4693",
					"maxclass" : "slider",
					"numinlets" : 1,
					"numoutlets" : 1,
					"orientation" : 1,
					"outlettype" : [ "" ],
					"parameter_enable" : 0,
					"patching_rect" : [ 393.25, 747.1708984375, 320.0, 17.0 ],
					"presentation" : 1,
					"presentation_rect" : [ 371.0, 440.085444688796997, 320.0, 20.0 ],
					"size" : 1.0,
					"varname" : "groundRotZ[10]"
				}

			}
, 			{
				"box" : 				{
					"fontname" : "Arial",
					"fontsize" : 9.0,
					"hidden" : 1,
					"id" : "obj-4694",
					"maxclass" : "newobj",
					"numinlets" : 3,
					"numoutlets" : 1,
					"outlettype" : [ "" ],
					"patching_rect" : [ 853.25, 717.1708984375, 119.0, 19.0 ],
					"text" : "expr ($f1 - $f2) / ( $f3 - $f2 )"
				}

			}
, 			{
				"box" : 				{
					"id" : "obj-4695",
					"maxclass" : "message",
					"numinlets" : 2,
					"numoutlets" : 1,
					"outlettype" : [ "" ],
					"patching_rect" : [ 987.25, 717.1708984375, 41.0, 22.0 ],
					"text" : "set $1"
				}

			}
, 			{
				"box" : 				{
					"fontname" : "Arial",
					"fontsize" : 9.0,
					"hidden" : 1,
					"id" : "obj-4696",
					"maxclass" : "newobj",
					"numinlets" : 3,
					"numoutlets" : 1,
					"outlettype" : [ "" ],
					"patching_rect" : [ 725.25, 717.1708984375, 118.0, 19.0 ],
					"text" : "expr $f2 + $f1 * ( $f3 - $f2 )"
				}

			}
, 			{
				"box" : 				{
					"fontname" : "Arial",
					"fontsize" : 12.0,
					"format" : 6,
					"id" : "obj-4697",
					"maxclass" : "flonum",
					"numinlets" : 1,
					"numoutlets" : 2,
					"outlettype" : [ "", "bang" ],
					"parameter_enable" : 0,
					"patching_rect" : [ 335.25, 714.6708984375, 46.0, 22.0 ],
					"presentation" : 1,
					"presentation_rect" : [ 319.0, 416.085444688796997, 50.0, 22.0 ],
					"varname" : "sceneRotY_max"
				}

			}
, 			{
				"box" : 				{
					"fontname" : "Arial",
					"fontsize" : 12.0,
					"format" : 6,
					"id" : "obj-4698",
					"maxclass" : "flonum",
					"numinlets" : 1,
					"numoutlets" : 2,
					"outlettype" : [ "", "bang" ],
					"parameter_enable" : 0,
					"patching_rect" : [ 283.25, 714.6708984375, 46.0, 22.0 ],
					"presentation" : 1,
					"presentation_rect" : [ 268.0, 416.085444688796997, 50.0, 22.0 ],
					"triangle" : 0,
					"varname" : "sceneRot_min"
				}

			}
, 			{
				"box" : 				{
					"fontname" : "Arial",
					"fontsize" : 12.0,
					"format" : 6,
					"id" : "obj-4699",
					"maxclass" : "flonum",
					"numinlets" : 1,
					"numoutlets" : 2,
					"outlettype" : [ "", "bang" ],
					"parameter_enable" : 0,
					"patching_rect" : [ 232.25, 714.6708984375, 46.0, 22.0 ],
					"presentation" : 1,
					"presentation_rect" : [ 216.0, 416.085444688796997, 50.0, 22.0 ],
					"triangle" : 0,
					"varname" : "sceneRotY"
				}

			}
, 			{
				"box" : 				{
					"floatoutput" : 1,
					"id" : "obj-4700",
					"maxclass" : "slider",
					"numinlets" : 1,
					"numoutlets" : 1,
					"orientation" : 1,
					"outlettype" : [ "" ],
					"parameter_enable" : 0,
					"patching_rect" : [ 393.25, 717.1708984375, 320.0, 17.0 ],
					"presentation" : 1,
					"presentation_rect" : [ 371.0, 417.085444688796997, 320.0, 20.0 ],
					"size" : 1.0,
					"varname" : "groundRotY[10]"
				}

			}
, 			{
				"box" : 				{
					"fontname" : "Arial",
					"fontsize" : 9.0,
					"hidden" : 1,
					"id" : "obj-4701",
					"maxclass" : "newobj",
					"numinlets" : 3,
					"numoutlets" : 1,
					"outlettype" : [ "" ],
					"patching_rect" : [ 853.25, 687.1708984375, 119.0, 19.0 ],
					"text" : "expr ($f1 - $f2) / ( $f3 - $f2 )"
				}

			}
, 			{
				"box" : 				{
					"id" : "obj-4702",
					"maxclass" : "message",
					"numinlets" : 2,
					"numoutlets" : 1,
					"outlettype" : [ "" ],
					"patching_rect" : [ 987.25, 687.1708984375, 41.0, 22.0 ],
					"text" : "set $1"
				}

			}
, 			{
				"box" : 				{
					"fontname" : "Arial",
					"fontsize" : 9.0,
					"hidden" : 1,
					"id" : "obj-4703",
					"maxclass" : "newobj",
					"numinlets" : 3,
					"numoutlets" : 1,
					"outlettype" : [ "" ],
					"patching_rect" : [ 725.25, 687.1708984375, 118.0, 19.0 ],
					"text" : "expr $f2 + $f1 * ( $f3 - $f2 )"
				}

			}
, 			{
				"box" : 				{
					"fontname" : "Arial",
					"fontsize" : 12.0,
					"format" : 6,
					"id" : "obj-4704",
					"maxclass" : "flonum",
					"numinlets" : 1,
					"numoutlets" : 2,
					"outlettype" : [ "", "bang" ],
					"parameter_enable" : 0,
					"patching_rect" : [ 335.25, 684.6708984375, 46.0, 22.0 ],
					"presentation" : 1,
					"presentation_rect" : [ 319.0, 393.085444688796997, 50.0, 22.0 ],
					"varname" : "sceneRotX_max"
				}

			}
, 			{
				"box" : 				{
					"fontname" : "Arial",
					"fontsize" : 12.0,
					"format" : 6,
					"id" : "obj-4705",
					"maxclass" : "flonum",
					"numinlets" : 1,
					"numoutlets" : 2,
					"outlettype" : [ "", "bang" ],
					"parameter_enable" : 0,
					"patching_rect" : [ 283.25, 684.6708984375, 46.0, 22.0 ],
					"presentation" : 1,
					"presentation_rect" : [ 268.0, 393.085444688796997, 50.0, 22.0 ],
					"triangle" : 0,
					"varname" : "sceneRotX_min"
				}

			}
, 			{
				"box" : 				{
					"fontname" : "Arial",
					"fontsize" : 12.0,
					"format" : 6,
					"id" : "obj-4706",
					"maxclass" : "flonum",
					"numinlets" : 1,
					"numoutlets" : 2,
					"outlettype" : [ "", "bang" ],
					"parameter_enable" : 0,
					"patching_rect" : [ 232.25, 684.6708984375, 46.0, 22.0 ],
					"presentation" : 1,
					"presentation_rect" : [ 216.0, 393.085444688796997, 50.0, 22.0 ],
					"triangle" : 0,
					"varname" : "sceneRotX"
				}

			}
, 			{
				"box" : 				{
					"id" : "obj-4707",
					"maxclass" : "newobj",
					"numinlets" : 1,
					"numoutlets" : 0,
					"patching_rect" : [ 1412.25, 682.1708984375, 91.0, 22.0 ],
					"text" : "s vis_osc_send"
				}

			}
, 			{
				"box" : 				{
					"id" : "obj-4708",
					"maxclass" : "message",
					"numinlets" : 2,
					"numoutlets" : 1,
					"outlettype" : [ "" ],
					"patching_rect" : [ 1212.25, 682.1708984375, 169.0, 22.0 ],
					"text" : "/vis/scenerotation $1 $2 $3 $4"
				}

			}
, 			{
				"box" : 				{
					"id" : "obj-4709",
					"maxclass" : "newobj",
					"numinlets" : 3,
					"numoutlets" : 1,
					"outlettype" : [ "" ],
					"patching_rect" : [ 1045.25, 687.1708984375, 88.0, 22.0 ],
					"text" : "pak 0.1 0.1 0.1"
				}

			}
, 			{
				"box" : 				{
					"fontname" : "Arial",
					"fontsize" : 12.0,
					"id" : "obj-4711",
					"maxclass" : "comment",
					"numinlets" : 1,
					"numoutlets" : 0,
					"patching_rect" : [ 29.0, 609.6708984375, 178.0, 20.0 ],
					"presentation" : 1,
					"presentation_rect" : [ 28.0, 393.085444688796997, 178.0, 20.0 ],
					"text" : "Scene Rotation"
				}

			}
, 			{
				"box" : 				{
					"floatoutput" : 1,
					"id" : "obj-4712",
					"maxclass" : "slider",
					"numinlets" : 1,
					"numoutlets" : 1,
					"orientation" : 1,
					"outlettype" : [ "" ],
					"parameter_enable" : 0,
					"patching_rect" : [ 393.25, 687.1708984375, 320.0, 17.0 ],
					"presentation" : 1,
					"presentation_rect" : [ 371.0, 394.085444688796997, 320.0, 20.0 ],
					"size" : 1.0,
					"varname" : "groundRotX[10]"
				}

			}
, 			{
				"box" : 				{
					"id" : "obj-27",
					"maxclass" : "message",
					"numinlets" : 2,
					"numoutlets" : 1,
					"outlettype" : [ "" ],
					"patching_rect" : [ 340.25, 552.0, 29.5, 22.0 ],
					"text" : "100"
				}

			}
, 			{
				"box" : 				{
					"id" : "obj-28",
					"maxclass" : "newobj",
					"numinlets" : 1,
					"numoutlets" : 0,
					"patching_rect" : [ 403.0, 554.0, 195.0, 22.0 ],
					"text" : "s ea_master_arm1_physics_preset"
				}

			}
, 			{
				"box" : 				{
					"id" : "obj-25",
					"maxclass" : "message",
					"numinlets" : 2,
					"numoutlets" : 1,
					"outlettype" : [ "" ],
					"patching_rect" : [ 340.25, 378.0, 29.5, 22.0 ],
					"text" : "140"
				}

			}
, 			{
				"box" : 				{
					"id" : "obj-26",
					"maxclass" : "newobj",
					"numinlets" : 1,
					"numoutlets" : 0,
					"patching_rect" : [ 403.0, 380.0, 195.0, 22.0 ],
					"text" : "s ea_master_arm1_physics_preset"
				}

			}
, 			{
				"box" : 				{
					"id" : "obj-20",
					"maxclass" : "newobj",
					"numinlets" : 1,
					"numoutlets" : 0,
					"patching_rect" : [ 687.0, 560.0, 198.0, 22.0 ],
					"text" : "s ea_master_arm1_particles_active"
				}

			}
, 			{
				"box" : 				{
					"id" : "obj-21",
					"maxclass" : "message",
					"numinlets" : 2,
					"numoutlets" : 1,
					"outlettype" : [ "" ],
					"patching_rect" : [ 624.25, 558.0, 29.5, 22.0 ],
					"text" : "1"
				}

			}
, 			{
				"box" : 				{
					"id" : "obj-22",
					"maxclass" : "button",
					"numinlets" : 1,
					"numoutlets" : 1,
					"outlettype" : [ "bang" ],
					"parameter_enable" : 0,
					"patching_rect" : [ 146.0, 558.0, 24.0, 24.0 ],
					"presentation" : 1,
					"presentation_rect" : [ 28.0, 321.0, 24.0, 24.0 ]
				}

			}
, 			{
				"box" : 				{
					"id" : "obj-879",
					"maxclass" : "newobj",
					"numinlets" : 1,
					"numoutlets" : 0,
					"patching_rect" : [ 683.0, 382.0, 187.0, 22.0 ],
					"text" : "s ea_master_arm1_fluidity_active"
				}

			}
, 			{
				"box" : 				{
					"id" : "obj-6",
					"maxclass" : "message",
					"numinlets" : 2,
					"numoutlets" : 1,
					"outlettype" : [ "" ],
					"patching_rect" : [ 620.25, 380.0, 29.5, 22.0 ],
					"text" : "1"
				}

			}
, 			{
				"box" : 				{
					"id" : "obj-19",
					"maxclass" : "button",
					"numinlets" : 1,
					"numoutlets" : 1,
					"outlettype" : [ "bang" ],
					"parameter_enable" : 0,
					"patching_rect" : [ 142.0, 380.0, 24.0, 24.0 ],
					"presentation" : 1,
					"presentation_rect" : [ 28.0, 207.0, 24.0, 24.0 ]
				}

			}
, 			{
				"box" : 				{
					"id" : "obj-5",
					"maxclass" : "message",
					"numinlets" : 2,
					"numoutlets" : 1,
					"outlettype" : [ "" ],
					"patching_rect" : [ 620.25, 282.0, 29.5, 22.0 ],
					"text" : "130"
				}

			}
, 			{
				"box" : 				{
					"id" : "obj-322",
					"maxclass" : "newobj",
					"numinlets" : 1,
					"numoutlets" : 0,
					"patching_rect" : [ 683.0, 284.0, 195.0, 22.0 ],
					"text" : "s ea_master_arm1_physics_preset"
				}

			}
, 			{
				"box" : 				{
					"id" : "obj-1",
					"maxclass" : "message",
					"numinlets" : 2,
					"numoutlets" : 1,
					"outlettype" : [ "" ],
					"patching_rect" : [ 146.0, 491.5, 38.0, 22.0 ],
					"text" : "set 0."
				}

			}
, 			{
				"box" : 				{
					"fontname" : "Arial",
					"fontsize" : 13.0,
					"id" : "obj-2",
					"maxclass" : "message",
					"numinlets" : 2,
					"numoutlets" : 1,
					"outlettype" : [ "" ],
					"patching_rect" : [ 930.0, 426.0, 77.0, 23.0 ],
					"text" : "0., 1. 20000"
				}

			}
, 			{
				"box" : 				{
					"id" : "obj-3",
					"maxclass" : "newobj",
					"numinlets" : 3,
					"numoutlets" : 2,
					"outlettype" : [ "", "bang" ],
					"patching_rect" : [ 930.0, 459.5, 40.0, 22.0 ],
					"text" : "line"
				}

			}
, 			{
				"box" : 				{
					"id" : "obj-8",
					"maxclass" : "newobj",
					"numinlets" : 0,
					"numoutlets" : 1,
					"outlettype" : [ "" ],
					"patching_rect" : [ 146.0, 465.0, 70.0, 22.0 ],
					"text" : "r scene_init"
				}

			}
, 			{
				"box" : 				{
					"id" : "obj-9",
					"maxclass" : "newobj",
					"numinlets" : 1,
					"numoutlets" : 0,
					"patching_rect" : [ 593.0, 464.0, 84.0, 22.0 ],
					"text" : "s scene_part2"
				}

			}
, 			{
				"box" : 				{
					"id" : "obj-10",
					"maxclass" : "message",
					"numinlets" : 2,
					"numoutlets" : 1,
					"outlettype" : [ "" ],
					"patching_rect" : [ 275.0, 464.0, 29.5, 22.0 ],
					"text" : "0."
				}

			}
, 			{
				"box" : 				{
					"id" : "obj-11",
					"maxclass" : "button",
					"numinlets" : 1,
					"numoutlets" : 1,
					"outlettype" : [ "bang" ],
					"parameter_enable" : 0,
					"patching_rect" : [ 231.0, 464.0, 24.0, 24.0 ],
					"presentation" : 1,
					"presentation_rect" : [ 28.0, 263.0, 24.0, 24.0 ]
				}

			}
, 			{
				"box" : 				{
					"floatoutput" : 1,
					"id" : "obj-12",
					"maxclass" : "slider",
					"numinlets" : 1,
					"numoutlets" : 1,
					"outlettype" : [ "" ],
					"parameter_enable" : 0,
					"patching_rect" : [ 329.0, 464.0, 242.0, 22.0 ],
					"presentation" : 1,
					"presentation_rect" : [ 71.0, 263.0, 242.0, 22.0 ],
					"size" : 1.0
				}

			}
, 			{
				"box" : 				{
					"id" : "obj-1057",
					"maxclass" : "newobj",
					"numinlets" : 0,
					"numoutlets" : 1,
					"outlettype" : [ "" ],
					"patching_rect" : [ 58.0, 283.0, 70.0, 22.0 ],
					"text" : "r scene_init"
				}

			}
, 			{
				"box" : 				{
					"id" : "obj-1058",
					"maxclass" : "newobj",
					"numinlets" : 1,
					"numoutlets" : 0,
					"patching_rect" : [ 247.0, 282.0, 95.0, 22.0 ],
					"text" : "s vis_preset_set"
				}

			}
, 			{
				"box" : 				{
					"id" : "obj-1059",
					"maxclass" : "message",
					"numinlets" : 2,
					"numoutlets" : 1,
					"outlettype" : [ "" ],
					"patching_rect" : [ 187.0, 282.0, 35.0, 22.0 ],
					"presentation" : 1,
					"presentation_rect" : [ 98.0, 153.0, 35.0, 22.0 ],
					"text" : "1600"
				}

			}
, 			{
				"box" : 				{
					"id" : "obj-1060",
					"maxclass" : "button",
					"numinlets" : 1,
					"numoutlets" : 1,
					"outlettype" : [ "bang" ],
					"parameter_enable" : 0,
					"patching_rect" : [ 142.0, 282.0, 24.0, 24.0 ],
					"presentation" : 1,
					"presentation_rect" : [ 71.0, 153.0, 24.0, 24.0 ]
				}

			}
, 			{
				"box" : 				{
					"id" : "obj-1061",
					"maxclass" : "comment",
					"numinlets" : 1,
					"numoutlets" : 0,
					"patching_rect" : [ 143.0, 255.0, 150.0, 20.0 ],
					"presentation" : 1,
					"presentation_rect" : [ 28.0, 127.0, 150.0, 20.0 ],
					"text" : "Scene Init"
				}

			}
, 			{
				"box" : 				{
					"id" : "obj-307",
					"maxclass" : "button",
					"numinlets" : 1,
					"numoutlets" : 1,
					"outlettype" : [ "bang" ],
					"parameter_enable" : 0,
					"patching_rect" : [ 793.0, 44.0, 24.0, 24.0 ],
					"presentation" : 1,
					"presentation_rect" : [ 28.0, 153.0, 24.0, 24.0 ]
				}

			}
, 			{
				"box" : 				{
					"id" : "obj-390",
					"maxclass" : "newobj",
					"numinlets" : 1,
					"numoutlets" : 0,
					"patching_rect" : [ 835.0, 72.0, 72.0, 22.0 ],
					"text" : "s scene_init"
				}

			}
, 			{
				"box" : 				{
					"id" : "obj-450",
					"maxclass" : "newobj",
					"numinlets" : 1,
					"numoutlets" : 1,
					"outlettype" : [ "bang" ],
					"patching_rect" : [ 835.0, 43.0, 58.0, 22.0 ],
					"text" : "loadbang"
				}

			}
, 			{
				"box" : 				{
					"id" : "obj-15",
					"maxclass" : "newobj",
					"numinlets" : 0,
					"numoutlets" : 1,
					"outlettype" : [ "" ],
					"patching_rect" : [ 129.0, 30.0, 93.0, 22.0 ],
					"text" : "r vis_preset_set"
				}

			}
, 			{
				"box" : 				{
					"fontname" : "Arial",
					"fontsize" : 12.0,
					"id" : "obj-251",
					"maxclass" : "newobj",
					"numinlets" : 1,
					"numoutlets" : 1,
					"outlettype" : [ "" ],
					"patching_rect" : [ 652.0, 129.0, 95.0, 22.0 ],
					"text" : "expr $f1 * 1000."
				}

			}
, 			{
				"box" : 				{
					"fontname" : "Arial",
					"fontsize" : 9.0,
					"id" : "obj-43",
					"maxclass" : "number",
					"numinlets" : 1,
					"numoutlets" : 2,
					"outlettype" : [ "", "bang" ],
					"parameter_enable" : 0,
					"patching_rect" : [ 652.0, 43.0, 42.0, 19.0 ],
					"presentation" : 1,
					"presentation_rect" : [ 568.5, 67.0, 42.0, 19.0 ]
				}

			}
, 			{
				"box" : 				{
					"fontname" : "Arial",
					"fontsize" : 12.0,
					"id" : "obj-194",
					"maxclass" : "message",
					"numinlets" : 2,
					"numoutlets" : 1,
					"outlettype" : [ "" ],
					"patching_rect" : [ 652.0, 74.0, 43.0, 22.0 ],
					"text" : "set $1"
				}

			}
, 			{
				"box" : 				{
					"id" : "obj-111",
					"maxclass" : "button",
					"numinlets" : 1,
					"numoutlets" : 1,
					"outlettype" : [ "bang" ],
					"parameter_enable" : 0,
					"patching_rect" : [ 625.0, 43.0, 20.0, 20.0 ],
					"presentation" : 1,
					"presentation_rect" : [ 541.5, 67.0, 20.0, 20.0 ]
				}

			}
, 			{
				"box" : 				{
					"fontname" : "Arial",
					"fontsize" : 12.0,
					"id" : "obj-44",
					"maxclass" : "number",
					"numinlets" : 1,
					"numoutlets" : 2,
					"outlettype" : [ "", "bang" ],
					"parameter_enable" : 0,
					"patching_rect" : [ 652.0, 99.0, 50.0, 22.0 ]
				}

			}
, 			{
				"box" : 				{
					"fontname" : "Arial",
					"fontsize" : 12.0,
					"format" : 6,
					"id" : "obj-48",
					"maxclass" : "flonum",
					"numinlets" : 1,
					"numoutlets" : 2,
					"outlettype" : [ "", "bang" ],
					"parameter_enable" : 0,
					"patching_rect" : [ 652.0, 222.0, 50.0, 22.0 ]
				}

			}
, 			{
				"box" : 				{
					"fontname" : "Arial",
					"fontsize" : 12.0,
					"id" : "obj-93",
					"maxclass" : "newobj",
					"numinlets" : 1,
					"numoutlets" : 1,
					"outlettype" : [ "" ],
					"patching_rect" : [ 652.0, 198.0, 104.0, 22.0 ],
					"text" : "expr $f1 / 100000"
				}

			}
, 			{
				"box" : 				{
					"fontname" : "Arial",
					"fontsize" : 13.0,
					"id" : "obj-88",
					"maxclass" : "message",
					"numinlets" : 2,
					"numoutlets" : 1,
					"outlettype" : [ "" ],
					"patching_rect" : [ 652.0, 153.0, 86.0, 23.0 ],
					"text" : "0, 100000 $1"
				}

			}
, 			{
				"box" : 				{
					"fontname" : "Arial",
					"fontsize" : 12.0,
					"id" : "obj-49",
					"maxclass" : "newobj",
					"numinlets" : 3,
					"numoutlets" : 2,
					"outlettype" : [ "", "bang" ],
					"patching_rect" : [ 652.0, 175.0, 64.0, 22.0 ],
					"text" : "line 1 100"
				}

			}
, 			{
				"box" : 				{
					"fontname" : "Arial",
					"fontsize" : 11.0,
					"hidden" : 1,
					"id" : "obj-50",
					"maxclass" : "newobj",
					"numinlets" : 1,
					"numoutlets" : 2,
					"outlettype" : [ "int", "bang" ],
					"patching_rect" : [ 260.25, 72.0, 32.5, 21.0 ],
					"text" : "t i b"
				}

			}
, 			{
				"box" : 				{
					"fontname" : "Arial",
					"fontsize" : 11.0,
					"hidden" : 1,
					"id" : "obj-51",
					"maxclass" : "newobj",
					"numinlets" : 2,
					"numoutlets" : 1,
					"outlettype" : [ "" ],
					"patching_rect" : [ 260.25, 99.0, 45.0, 21.0 ],
					"text" : "pack f i"
				}

			}
, 			{
				"box" : 				{
					"fontname" : "Arial",
					"fontsize" : 11.0,
					"hidden" : 1,
					"id" : "obj-54",
					"maxclass" : "message",
					"numinlets" : 2,
					"numoutlets" : 1,
					"outlettype" : [ "" ],
					"patching_rect" : [ 360.25, 121.0, 62.0, 21.0 ],
					"text" : "store 1000"
				}

			}
, 			{
				"box" : 				{
					"fontname" : "Arial",
					"fontsize" : 11.0,
					"hidden" : 1,
					"id" : "obj-58",
					"maxclass" : "message",
					"numinlets" : 2,
					"numoutlets" : 1,
					"outlettype" : [ "" ],
					"patching_rect" : [ 260.25, 121.0, 95.0, 21.0 ],
					"text" : "recall 1000 $2 $1"
				}

			}
, 			{
				"box" : 				{
					"fontname" : "Arial",
					"fontsize" : 12.0,
					"hidden" : 1,
					"id" : "obj-61",
					"maxclass" : "message",
					"numinlets" : 2,
					"numoutlets" : 1,
					"outlettype" : [ "" ],
					"patching_rect" : [ 250.0, 18.0, 32.5, 22.0 ],
					"text" : "0"
				}

			}
, 			{
				"box" : 				{
					"fontname" : "Arial",
					"fontsize" : 9.0,
					"id" : "obj-84",
					"maxclass" : "number",
					"numinlets" : 1,
					"numoutlets" : 2,
					"outlettype" : [ "", "bang" ],
					"parameter_enable" : 0,
					"patching_rect" : [ 250.0, 43.0, 41.0, 19.0 ],
					"presentation" : 1,
					"presentation_rect" : [ 166.5, 67.0, 41.0, 19.0 ]
				}

			}
, 			{
				"box" : 				{
					"floatoutput" : 1,
					"id" : "obj-85",
					"maxclass" : "slider",
					"numinlets" : 1,
					"numoutlets" : 1,
					"orientation" : 1,
					"outlettype" : [ "" ],
					"parameter_enable" : 0,
					"patching_rect" : [ 296.0, 43.0, 320.0, 17.0 ],
					"presentation" : 1,
					"presentation_rect" : [ 212.5, 67.0, 320.0, 17.0 ],
					"size" : 1.0
				}

			}
, 			{
				"box" : 				{
					"fontname" : "Arial",
					"fontsize" : 12.0,
					"hidden" : 1,
					"id" : "obj-280",
					"maxclass" : "message",
					"numinlets" : 2,
					"numoutlets" : 1,
					"outlettype" : [ "" ],
					"patching_rect" : [ 55.25, 64.0, 103.0, 22.0 ],
					"text" : "read controls.json"
				}

			}
, 			{
				"box" : 				{
					"fontname" : "Arial",
					"fontsize" : 12.0,
					"hidden" : 1,
					"id" : "obj-278",
					"maxclass" : "newobj",
					"numinlets" : 1,
					"numoutlets" : 1,
					"outlettype" : [ "bang" ],
					"patching_rect" : [ 62.0, 30.0, 60.0, 22.0 ],
					"text" : "loadbang"
				}

			}
, 			{
				"box" : 				{
					"fontname" : "Verdana Bold",
					"fontsize" : 9.0,
					"id" : "obj-163",
					"maxclass" : "comment",
					"numinlets" : 1,
					"numoutlets" : 0,
					"patching_rect" : [ 50.0, 92.0, 48.0, 17.0 ],
					"presentation" : 1,
					"presentation_rect" : [ 17.0, 48.0, 48.0, 17.0 ],
					"text" : "presets"
				}

			}
, 			{
				"box" : 				{
					"angle" : 0.0,
					"bgcolor" : [ 0.941176, 0.941176, 0.941176, 1.0 ],
					"border" : 1,
					"bordercolor" : [ 0.823529, 0.823529, 0.823529, 1.0 ],
					"hidden" : 1,
					"id" : "obj-164",
					"maxclass" : "panel",
					"mode" : 0,
					"numinlets" : 1,
					"numoutlets" : 0,
					"patching_rect" : [ 49.0, 92.0, 138.0, 18.0 ],
					"proportion" : 0.39,
					"rounded" : 0
				}

			}
, 			{
				"box" : 				{
					"fontname" : "Verdana",
					"fontsize" : 9.0,
					"id" : "obj-166",
					"maxclass" : "comment",
					"numinlets" : 1,
					"numoutlets" : 0,
					"patching_rect" : [ 125.0, 115.0, 36.0, 17.0 ],
					"presentation" : 1,
					"presentation_rect" : [ 109.5, 48.0, 36.0, 17.0 ],
					"text" : "recall"
				}

			}
, 			{
				"box" : 				{
					"fontname" : "Verdana",
					"fontsize" : 9.0,
					"id" : "obj-167",
					"maxclass" : "comment",
					"numinlets" : 1,
					"numoutlets" : 0,
					"patching_rect" : [ 62.0, 115.0, 34.0, 17.0 ],
					"presentation" : 1,
					"presentation_rect" : [ 70.0, 48.0, 34.0, 17.0 ],
					"text" : "store"
				}

			}
, 			{
				"box" : 				{
					"fontname" : "Verdana",
					"fontsize" : 9.0,
					"hidden" : 1,
					"id" : "obj-168",
					"maxclass" : "comment",
					"numinlets" : 1,
					"numoutlets" : 0,
					"patching_rect" : [ 61.0, 161.0, 44.0, 17.0 ],
					"text" : "presets"
				}

			}
, 			{
				"box" : 				{
					"allowdrag" : 0,
					"fontname" : "Verdana",
					"fontsize" : 9.0,
					"id" : "obj-169",
					"items" : [ "read", ",", "write", ",", "clientwindow", ",", "storagewindow" ],
					"labelclick" : 1,
					"maxclass" : "umenu",
					"numinlets" : 1,
					"numoutlets" : 3,
					"outlettype" : [ "int", "", "" ],
					"parameter_enable" : 0,
					"patching_rect" : [ 61.0, 180.0, 78.0, 19.0 ],
					"presentation" : 1,
					"presentation_rect" : [ 70.0, 90.0, 87.5, 19.0 ]
				}

			}
, 			{
				"box" : 				{
					"fontname" : "Verdana",
					"fontsize" : 9.0,
					"format" : 6,
					"id" : "obj-203",
					"maxclass" : "flonum",
					"numinlets" : 1,
					"numoutlets" : 2,
					"outlettype" : [ "", "bang" ],
					"parameter_enable" : 0,
					"patching_rect" : [ 125.0, 135.0, 48.0, 19.0 ],
					"presentation" : 1,
					"presentation_rect" : [ 109.5, 67.0, 48.0, 19.0 ],
					"triscale" : 0.9
				}

			}
, 			{
				"box" : 				{
					"fontname" : "Verdana",
					"fontsize" : 9.0,
					"id" : "obj-204",
					"maxclass" : "number",
					"numinlets" : 1,
					"numoutlets" : 2,
					"outlettype" : [ "", "bang" ],
					"parameter_enable" : 0,
					"patching_rect" : [ 77.0, 135.0, 35.0, 19.0 ],
					"presentation" : 1,
					"presentation_rect" : [ 70.0, 67.0, 35.0, 19.0 ],
					"triscale" : 0.9
				}

			}
, 			{
				"box" : 				{
					"id" : "obj-205",
					"maxclass" : "button",
					"numinlets" : 1,
					"numoutlets" : 1,
					"outlettype" : [ "bang" ],
					"parameter_enable" : 0,
					"patching_rect" : [ 61.0, 135.0, 19.0, 19.0 ],
					"presentation" : 1,
					"presentation_rect" : [ 48.0, 67.0, 19.0, 19.0 ]
				}

			}
, 			{
				"box" : 				{
					"fontname" : "Verdana",
					"fontsize" : 9.0,
					"hidden" : 1,
					"id" : "obj-206",
					"maxclass" : "newobj",
					"numinlets" : 2,
					"numoutlets" : 1,
					"outlettype" : [ "" ],
					"patching_rect" : [ 61.0, 156.0, 66.0, 19.0 ],
					"text" : "pack store 0"
				}

			}
, 			{
				"box" : 				{
					"autorestore" : "controls.json",
					"fontname" : "Verdana",
					"fontsize" : 9.0,
					"hidden" : 1,
					"id" : "obj-207",
					"maxclass" : "newobj",
					"numinlets" : 1,
					"numoutlets" : 1,
					"outlettype" : [ "" ],
					"patching_rect" : [ 61.0, 200.0, 67.0, 19.0 ],
					"saved_object_attributes" : 					{
						"client_rect" : [ 425, 63, 1089, 469 ],
						"parameter_enable" : 0,
						"parameter_mappable" : 0,
						"storage_rect" : [ 156, 256, 1488, 1200 ]
					}
,
					"text" : "pattrstorage",
					"varname" : "u845000342"
				}

			}
, 			{
				"box" : 				{
					"fontname" : "Verdana",
					"fontsize" : 9.0,
					"hidden" : 1,
					"id" : "obj-211",
					"maxclass" : "newobj",
					"numinlets" : 1,
					"numoutlets" : 4,
					"outlettype" : [ "", "", "", "" ],
					"patching_rect" : [ 129.0, 200.0, 53.0, 19.0 ],
					"restore" : 					{
						"groundRotX[10]" : [ 0.5 ],
						"groundRotY[10]" : [ 0.5 ],
						"groundRotZ[10]" : [ 0.5 ],
						"sceneRotX" : [ 0.0 ],
						"sceneRotX_max" : [ 180.0 ],
						"sceneRotX_min" : [ -180.0 ],
						"sceneRotY" : [ 0.0 ],
						"sceneRotY_max" : [ 180.0 ],
						"sceneRotZ" : [ 0.0 ],
						"sceneRotZ_max" : [ 180.0 ],
						"sceneRotZ_min" : [ -180.0 ],
						"sceneRot_min" : [ -180.0 ]
					}
,
					"text" : "autopattr",
					"varname" : "u729000346"
				}

			}
, 			{
				"box" : 				{
					"angle" : 0.0,
					"bgcolor" : [ 0.968627, 0.968627, 0.968627, 1.0 ],
					"border" : 1,
					"bordercolor" : [ 0.901961, 0.901961, 0.901961, 1.0 ],
					"hidden" : 1,
					"id" : "obj-212",
					"maxclass" : "panel",
					"mode" : 0,
					"numinlets" : 1,
					"numoutlets" : 0,
					"patching_rect" : [ 49.0, 111.0, 138.0, 112.0 ],
					"proportion" : 0.39,
					"rounded" : 0
				}

			}
 ],
		"lines" : [ 			{
				"patchline" : 				{
					"destination" : [ "obj-12", 0 ],
					"source" : [ "obj-1", 0 ]
				}

			}
, 			{
				"patchline" : 				{
					"destination" : [ "obj-12", 0 ],
					"source" : [ "obj-10", 0 ]
				}

			}
, 			{
				"patchline" : 				{
					"destination" : [ "obj-1060", 0 ],
					"source" : [ "obj-1057", 0 ]
				}

			}
, 			{
				"patchline" : 				{
					"destination" : [ "obj-1058", 0 ],
					"source" : [ "obj-1059", 0 ]
				}

			}
, 			{
				"patchline" : 				{
					"destination" : [ "obj-1059", 0 ],
					"order" : 3,
					"source" : [ "obj-1060", 0 ]
				}

			}
, 			{
				"patchline" : 				{
					"destination" : [ "obj-14", 0 ],
					"order" : 4,
					"source" : [ "obj-1060", 0 ]
				}

			}
, 			{
				"patchline" : 				{
					"destination" : [ "obj-32", 0 ],
					"order" : 0,
					"source" : [ "obj-1060", 0 ]
				}

			}
, 			{
				"patchline" : 				{
					"destination" : [ "obj-34", 0 ],
					"order" : 1,
					"source" : [ "obj-1060", 0 ]
				}

			}
, 			{
				"patchline" : 				{
					"destination" : [ "obj-5", 0 ],
					"order" : 2,
					"source" : [ "obj-1060", 0 ]
				}

			}
, 			{
				"patchline" : 				{
					"destination" : [ "obj-10", 0 ],
					"order" : 1,
					"source" : [ "obj-11", 0 ]
				}

			}
, 			{
				"patchline" : 				{
					"destination" : [ "obj-2", 0 ],
					"order" : 0,
					"source" : [ "obj-11", 0 ]
				}

			}
, 			{
				"patchline" : 				{
					"destination" : [ "obj-44", 0 ],
					"source" : [ "obj-111", 0 ]
				}

			}
, 			{
				"patchline" : 				{
					"destination" : [ "obj-9", 0 ],
					"source" : [ "obj-12", 0 ]
				}

			}
, 			{
				"patchline" : 				{
					"destination" : [ "obj-203", 0 ],
					"source" : [ "obj-15", 0 ]
				}

			}
, 			{
				"patchline" : 				{
					"destination" : [ "obj-207", 0 ],
					"hidden" : 1,
					"midpoints" : [ 100.0, 151.0, 70.5, 151.0 ],
					"source" : [ "obj-169", 1 ]
				}

			}
, 			{
				"patchline" : 				{
					"destination" : [ "obj-25", 0 ],
					"order" : 1,
					"source" : [ "obj-19", 0 ]
				}

			}
, 			{
				"patchline" : 				{
					"destination" : [ "obj-6", 0 ],
					"order" : 0,
					"source" : [ "obj-19", 0 ]
				}

			}
, 			{
				"patchline" : 				{
					"destination" : [ "obj-44", 0 ],
					"source" : [ "obj-194", 0 ]
				}

			}
, 			{
				"patchline" : 				{
					"destination" : [ "obj-3", 0 ],
					"source" : [ "obj-2", 0 ]
				}

			}
, 			{
				"patchline" : 				{
					"destination" : [ "obj-207", 0 ],
					"hidden" : 1,
					"midpoints" : [ 134.5, 152.0, 70.5, 152.0 ],
					"source" : [ "obj-203", 0 ]
				}

			}
, 			{
				"patchline" : 				{
					"destination" : [ "obj-206", 1 ],
					"hidden" : 1,
					"midpoints" : [ 86.5, 151.0, 117.5, 151.0 ],
					"source" : [ "obj-204", 0 ]
				}

			}
, 			{
				"patchline" : 				{
					"destination" : [ "obj-206", 0 ],
					"hidden" : 1,
					"source" : [ "obj-205", 0 ]
				}

			}
, 			{
				"patchline" : 				{
					"destination" : [ "obj-207", 0 ],
					"hidden" : 1,
					"source" : [ "obj-206", 0 ]
				}

			}
, 			{
				"patchline" : 				{
					"destination" : [ "obj-20", 0 ],
					"source" : [ "obj-21", 0 ]
				}

			}
, 			{
				"patchline" : 				{
					"destination" : [ "obj-21", 0 ],
					"order" : 0,
					"source" : [ "obj-22", 0 ]
				}

			}
, 			{
				"patchline" : 				{
					"destination" : [ "obj-27", 0 ],
					"order" : 1,
					"source" : [ "obj-22", 0 ]
				}

			}
, 			{
				"patchline" : 				{
					"destination" : [ "obj-26", 0 ],
					"source" : [ "obj-25", 0 ]
				}

			}
, 			{
				"patchline" : 				{
					"destination" : [ "obj-88", 0 ],
					"source" : [ "obj-251", 0 ]
				}

			}
, 			{
				"patchline" : 				{
					"destination" : [ "obj-28", 0 ],
					"source" : [ "obj-27", 0 ]
				}

			}
, 			{
				"patchline" : 				{
					"destination" : [ "obj-280", 0 ],
					"hidden" : 1,
					"source" : [ "obj-278", 0 ]
				}

			}
, 			{
				"patchline" : 				{
					"destination" : [ "obj-207", 0 ],
					"hidden" : 1,
					"source" : [ "obj-280", 0 ]
				}

			}
, 			{
				"patchline" : 				{
					"destination" : [ "obj-30", 0 ],
					"source" : [ "obj-29", 0 ]
				}

			}
, 			{
				"patchline" : 				{
					"destination" : [ "obj-38", 0 ],
					"source" : [ "obj-3", 0 ]
				}

			}
, 			{
				"patchline" : 				{
					"destination" : [ "obj-4706", 0 ],
					"source" : [ "obj-30", 0 ]
				}

			}
, 			{
				"patchline" : 				{
					"destination" : [ "obj-390", 0 ],
					"source" : [ "obj-307", 0 ]
				}

			}
, 			{
				"patchline" : 				{
					"destination" : [ "obj-31", 0 ],
					"source" : [ "obj-32", 0 ]
				}

			}
, 			{
				"patchline" : 				{
					"destination" : [ "obj-33", 0 ],
					"source" : [ "obj-34", 0 ]
				}

			}
, 			{
				"patchline" : 				{
					"destination" : [ "obj-12", 0 ],
					"source" : [ "obj-38", 0 ]
				}

			}
, 			{
				"patchline" : 				{
					"destination" : [ "obj-194", 0 ],
					"source" : [ "obj-43", 0 ]
				}

			}
, 			{
				"patchline" : 				{
					"destination" : [ "obj-251", 0 ],
					"source" : [ "obj-44", 0 ]
				}

			}
, 			{
				"patchline" : 				{
					"destination" : [ "obj-390", 0 ],
					"source" : [ "obj-450", 0 ]
				}

			}
, 			{
				"patchline" : 				{
					"destination" : [ "obj-919", 0 ],
					"source" : [ "obj-4685", 3 ]
				}

			}
, 			{
				"patchline" : 				{
					"destination" : [ "obj-919", 3 ],
					"source" : [ "obj-4685", 2 ]
				}

			}
, 			{
				"patchline" : 				{
					"destination" : [ "obj-919", 2 ],
					"source" : [ "obj-4685", 1 ]
				}

			}
, 			{
				"patchline" : 				{
					"destination" : [ "obj-919", 1 ],
					"source" : [ "obj-4685", 0 ]
				}

			}
, 			{
				"patchline" : 				{
					"destination" : [ "obj-4685", 0 ],
					"source" : [ "obj-4686", 0 ]
				}

			}
, 			{
				"patchline" : 				{
					"destination" : [ "obj-4693", 0 ],
					"source" : [ "obj-4687", 0 ]
				}

			}
, 			{
				"patchline" : 				{
					"destination" : [ "obj-4692", 0 ],
					"source" : [ "obj-4688", 0 ]
				}

			}
, 			{
				"patchline" : 				{
					"destination" : [ "obj-4688", 0 ],
					"order" : 1,
					"source" : [ "obj-4689", 0 ]
				}

			}
, 			{
				"patchline" : 				{
					"destination" : [ "obj-4709", 2 ],
					"order" : 0,
					"source" : [ "obj-4689", 0 ]
				}

			}
, 			{
				"patchline" : 				{
					"destination" : [ "obj-4687", 2 ],
					"order" : 0,
					"source" : [ "obj-4690", 0 ]
				}

			}
, 			{
				"patchline" : 				{
					"destination" : [ "obj-4689", 2 ],
					"order" : 1,
					"source" : [ "obj-4690", 0 ]
				}

			}
, 			{
				"patchline" : 				{
					"destination" : [ "obj-4687", 1 ],
					"order" : 0,
					"source" : [ "obj-4691", 0 ]
				}

			}
, 			{
				"patchline" : 				{
					"destination" : [ "obj-4689", 1 ],
					"order" : 1,
					"source" : [ "obj-4691", 0 ]
				}

			}
, 			{
				"patchline" : 				{
					"destination" : [ "obj-4687", 0 ],
					"source" : [ "obj-4692", 0 ]
				}

			}
, 			{
				"patchline" : 				{
					"destination" : [ "obj-4689", 0 ],
					"source" : [ "obj-4693", 0 ]
				}

			}
, 			{
				"patchline" : 				{
					"destination" : [ "obj-4700", 0 ],
					"source" : [ "obj-4694", 0 ]
				}

			}
, 			{
				"patchline" : 				{
					"destination" : [ "obj-4699", 0 ],
					"source" : [ "obj-4695", 0 ]
				}

			}
, 			{
				"patchline" : 				{
					"destination" : [ "obj-4695", 0 ],
					"order" : 1,
					"source" : [ "obj-4696", 0 ]
				}

			}
, 			{
				"patchline" : 				{
					"destination" : [ "obj-4709", 1 ],
					"order" : 0,
					"source" : [ "obj-4696", 0 ]
				}

			}
, 			{
				"patchline" : 				{
					"destination" : [ "obj-4694", 2 ],
					"order" : 0,
					"source" : [ "obj-4697", 0 ]
				}

			}
, 			{
				"patchline" : 				{
					"destination" : [ "obj-4696", 2 ],
					"order" : 1,
					"source" : [ "obj-4697", 0 ]
				}

			}
, 			{
				"patchline" : 				{
					"destination" : [ "obj-4694", 1 ],
					"order" : 0,
					"source" : [ "obj-4698", 0 ]
				}

			}
, 			{
				"patchline" : 				{
					"destination" : [ "obj-4696", 1 ],
					"order" : 1,
					"source" : [ "obj-4698", 0 ]
				}

			}
, 			{
				"patchline" : 				{
					"destination" : [ "obj-4694", 0 ],
					"source" : [ "obj-4699", 0 ]
				}

			}
, 			{
				"patchline" : 				{
					"destination" : [ "obj-4696", 0 ],
					"source" : [ "obj-4700", 0 ]
				}

			}
, 			{
				"patchline" : 				{
					"destination" : [ "obj-4712", 0 ],
					"source" : [ "obj-4701", 0 ]
				}

			}
, 			{
				"patchline" : 				{
					"destination" : [ "obj-4706", 0 ],
					"source" : [ "obj-4702", 0 ]
				}

			}
, 			{
				"patchline" : 				{
					"destination" : [ "obj-4702", 0 ],
					"order" : 1,
					"source" : [ "obj-4703", 0 ]
				}

			}
, 			{
				"patchline" : 				{
					"destination" : [ "obj-4709", 0 ],
					"order" : 0,
					"source" : [ "obj-4703", 0 ]
				}

			}
, 			{
				"patchline" : 				{
					"destination" : [ "obj-4701", 2 ],
					"order" : 0,
					"source" : [ "obj-4704", 0 ]
				}

			}
, 			{
				"patchline" : 				{
					"destination" : [ "obj-4703", 2 ],
					"order" : 1,
					"source" : [ "obj-4704", 0 ]
				}

			}
, 			{
				"patchline" : 				{
					"destination" : [ "obj-4701", 1 ],
					"order" : 0,
					"source" : [ "obj-4705", 0 ]
				}

			}
, 			{
				"patchline" : 				{
					"destination" : [ "obj-4703", 1 ],
					"order" : 1,
					"source" : [ "obj-4705", 0 ]
				}

			}
, 			{
				"patchline" : 				{
					"destination" : [ "obj-4701", 0 ],
					"source" : [ "obj-4706", 0 ]
				}

			}
, 			{
				"patchline" : 				{
					"destination" : [ "obj-4707", 0 ],
					"source" : [ "obj-4708", 0 ]
				}

			}
, 			{
				"patchline" : 				{
					"destination" : [ "obj-4686", 0 ],
					"source" : [ "obj-4709", 0 ]
				}

			}
, 			{
				"patchline" : 				{
					"destination" : [ "obj-4703", 0 ],
					"source" : [ "obj-4712", 0 ]
				}

			}
, 			{
				"patchline" : 				{
					"destination" : [ "obj-85", 0 ],
					"source" : [ "obj-48", 0 ]
				}

			}
, 			{
				"patchline" : 				{
					"destination" : [ "obj-93", 0 ],
					"source" : [ "obj-49", 0 ]
				}

			}
, 			{
				"patchline" : 				{
					"destination" : [ "obj-322", 0 ],
					"source" : [ "obj-5", 0 ]
				}

			}
, 			{
				"patchline" : 				{
					"destination" : [ "obj-51", 1 ],
					"hidden" : 1,
					"source" : [ "obj-50", 0 ]
				}

			}
, 			{
				"patchline" : 				{
					"destination" : [ "obj-54", 0 ],
					"hidden" : 1,
					"source" : [ "obj-50", 1 ]
				}

			}
, 			{
				"patchline" : 				{
					"destination" : [ "obj-58", 0 ],
					"hidden" : 1,
					"source" : [ "obj-51", 0 ]
				}

			}
, 			{
				"patchline" : 				{
					"destination" : [ "obj-207", 0 ],
					"source" : [ "obj-54", 0 ]
				}

			}
, 			{
				"patchline" : 				{
					"destination" : [ "obj-207", 0 ],
					"source" : [ "obj-58", 0 ]
				}

			}
, 			{
				"patchline" : 				{
					"destination" : [ "obj-879", 0 ],
					"source" : [ "obj-6", 0 ]
				}

			}
, 			{
				"patchline" : 				{
					"destination" : [ "obj-85", 0 ],
					"hidden" : 1,
					"source" : [ "obj-61", 0 ]
				}

			}
, 			{
				"patchline" : 				{
					"destination" : [ "obj-1", 0 ],
					"source" : [ "obj-8", 0 ]
				}

			}
, 			{
				"patchline" : 				{
					"destination" : [ "obj-50", 0 ],
					"hidden" : 1,
					"order" : 0,
					"source" : [ "obj-84", 0 ]
				}

			}
, 			{
				"patchline" : 				{
					"destination" : [ "obj-61", 0 ],
					"hidden" : 1,
					"order" : 1,
					"source" : [ "obj-84", 0 ]
				}

			}
, 			{
				"patchline" : 				{
					"destination" : [ "obj-51", 0 ],
					"hidden" : 1,
					"source" : [ "obj-85", 0 ]
				}

			}
, 			{
				"patchline" : 				{
					"destination" : [ "obj-49", 0 ],
					"source" : [ "obj-88", 0 ]
				}

			}
, 			{
				"patchline" : 				{
					"destination" : [ "obj-4708", 0 ],
					"source" : [ "obj-919", 0 ]
				}

			}
, 			{
				"patchline" : 				{
					"destination" : [ "obj-48", 0 ],
					"source" : [ "obj-93", 0 ]
				}

			}
 ],
		"dependency_cache" : [ 			{
				"name" : "controls.json",
				"bootpath" : "~/Projects/Incubatio/Software_Git/Incubatio/RayMarching_Python/controls",
				"patcherrelativepath" : ".",
				"type" : "JSON",
				"implicit" : 1
			}
 ],
		"autosave" : 0
	}

}
